SplineFontDB: 3.2
FontName: CorkBoardIcons
FullName: CorkBoard Icons Regular
FamilyName: CorkBoardIcons
Weight: Regular
Copyright: Copyright (c) 2024, Skai Jay
UComments: "2024-5-15: Created with FontForge (http://fontforge.org)"
Version: 001.000
ItalicAngle: 0
UnderlinePosition: -100
UnderlineWidth: 50
Ascent: 800
Descent: 200
InvalidEm: 0
LayerCount: 2
Layer: 0 0 "Back" 1
Layer: 1 0 "Fore" 0
XUID: [1021 729 -1943746794 4166]
OS2Version: 0
OS2_WeightWidthSlopeOnly: 0
OS2_UseTypoMetrics: 1
CreationTime: 1715826844
ModificationTime: 1715928956
OS2TypoAscent: 0
OS2TypoAOffset: 1
OS2TypoDescent: 0
OS2TypoDOffset: 1
OS2TypoLinegap: 0
OS2WinAscent: 0
OS2WinAOffset: 1
OS2WinDescent: 0
OS2WinDOffset: 1
HheadAscent: 0
HheadAOffset: 1
HheadDescent: 0
HheadDOffset: 1
OS2Vendor: 'PfEd'
MarkAttachClasses: 1
DEI: 91125
Encoding: ISO8859-1
UnicodeInterp: none
NameList: AGL For New Fonts
DisplaySize: -72
AntiAlias: 1
FitToEm: 0
WinInfo: 0 26 10
BeginPrivate: 0
EndPrivate
Grid
609.076171875 -82 m 5
 618.824607877 -59.2471897442 626.391601562 -41.583984375 626.391601562 -41.583984375 c 6
 627.576408824 -38.8185208732 628.326171875 -35.48046875 628.326171875 -32.12109375 c 4
 628.326171875 -18.841796875 617.557617188 -8.04296875 604.276367188 -8.04296875 c 4
 604.265625 -8.0615234375 484.764648438 -8.04296875 484.764648438 -8.04296875 c 6
 471.485351562 -8.04296875 460.705078125 -18.8251953125 460.705078125 -32.1044921875 c 4
 460.705078125 -35.4619140625 461.405273438 -38.677734375 462.649414062 -41.583984375 c 5
 462.645887046 -41.5772830432 470.439664184 -59.7625504916 480.399414062 -83 c 5
 518.458414661 -135.36990192 558 -42 609.076171875 -82 c 5
445.919921875 681.713867188 m 6
 432.640625 681.713867188 421.859375 670.932617188 421.859375 657.653320312 c 4
 421.859375 651.912109375 423.880859375 646.623046875 427.2421875 642.485351562 c 5
 427.234375 642.5 823.301757812 154.8046875 823.301757812 154.8046875 c 6

StartChar: l
Encoding: 108 108 0
Width: 1066
Flags: HW
LayerCount: 2
Fore
SplineSet
158.833984375 566.94921875 m 0
 158.833984375 626.665039062 181.646484375 717.209960938 320.03125 717.209960938 c 0
 426.913085938 717.209960938 514.247070312 630.403320312 516.8359375 522.5625 c 0
 518.010742188 473.599609375 592.23046875 473.599609375 593.404296875 522.5625 c 0
 596 630.454101562 683.333007812 717.25390625 790.209960938 717.25390625 c 0
 974.84765625 717.25390625 1038.40429688 539.458984375 778.651367188 217.331054688 c 0
 692.517578125 110.517578125 598.78125 21.046875 555.1171875 -18.8974609375 c 0
 494.264648438 36.7685546875 158.833984375 353.297851562 158.833984375 566.94921875 c 0
555.110351562 658.610351562 m 1
 429.350585938 871.875 82.234375 828.725585938 82.234375 566.94921875 c 0
 82.234375 291.512695312 503.475585938 -76.296875 530.12109375 -99.29296875 c 0
 544.485351562 -111.689453125 565.754882812 -111.689453125 580.119140625 -99.29296875 c 0
 606.911132812 -76.17578125 1028 291.595703125 1028 567 c 0
 1028 588.390625 1021.97070312 793.846679688 790.209960938 793.846679688 c 0
 689.916015625 793.846679688 602.697265625 739.342773438 555.110351562 658.610351562 c 1
EndSplineSet
EndChar

StartChar: s
Encoding: 115 115 1
Width: 1070
Flags: HW
LayerCount: 2
Fore
SplineSet
585.297851562 779.840820312 m 0
 600.893554688 785.7421875 618.840820312 782.478515625 630.775390625 771.571289062 c 2
 1006.36328125 436.14453125 l 2
 1022.22363281 421.979492188 1022.72167969 398.737304688 1007.87402344 383.658203125 c 2
 632.288085938 10.08984375 l 2
 620.727539062 -1.6474609375 602.448242188 -5.6630859375 586.31640625 -0.00390625 c 0
 570.185546875 5.6533203125 558.268554688 19.865234375 559.536132812 35.6044921875 c 2
 575.21484375 230.229492188 l 1
 554.349609375 230.229492188 l 2
 379.81640625 230.229492188 226.635742188 3.3544921875 185.890625 -113.196289062 c 0
 179.629882812 -131.099609375 160.03125 -142.16796875 139.709960938 -139.274414062 c 0
 119.389648438 -136.377929688 104.40625 -120.3828125 104.40625 -101.5859375 c 0
 62.4599609375 302.904296875 346.875 530.701171875 575.21484375 549.571289062 c 1
 559.536132812 744.6015625 l 2
 558.30078125 759.978515625 569.702148438 773.936523438 585.297851562 779.840820312 c 0
643 652.521484375 m 1
 658.6796875 511.837890625 l 2
 661.012695312 490.903320312 639.995117188 473.696289062 616.946289062 473.696289062 c 2
 596.081054688 473.696289062 l 2
 308.357421875 473.696289062 153.623046875 133.616210938 161.119140625 -16.4482421875 c 1
 219.94921875 129.181640625 415.891601562 306.51171875 554.349609375 306.51171875 c 2
 616.946289062 306.51171875 l 2
 639.995117188 306.51171875 661.00390625 289.306640625 658.6796875 268.370117188 c 2
 643 135 l 1
 919.34765625 407.79296875 l 1
 643 652.521484375 l 1
EndSplineSet
EndChar

StartChar: C
Encoding: 67 67 2
Width: 1016
Flags: HW
LayerCount: 2
Fore
SplineSet
445.919921875 681.713867188 m 2
 432.640625 681.713867188 421.859375 670.932617188 421.859375 657.653320312 c 0
 421.859375 651.912109375 423.880859375 646.623046875 427.2421875 642.485351562 c 1
 427.234375 642.5 823.301757812 154.8046875 823.301757812 154.8046875 c 2
 834.502929688 141.01171875 841.219726562 123.432617188 841.219726562 104.295898438 c 0
 841.219726562 60.0302734375 805.309570312 24.0380859375 761.04296875 24.0380859375 c 0
 761.015625 24.0927734375 307.55859375 24.0380859375 307.55859375 24.0380859375 c 2
 263.29296875 24.0380859375 227.35546875 59.9755859375 227.35546875 104.2421875 c 0
 227.35546875 120.36328125 232.170898438 135.461914062 240.370117188 148.040039062 c 1
 240.3203125 147.95703125 401.53515625 395.2890625 401.53515625 395.2890625 c 2
 405.830078125 401.875976562 413.264648438 406.234375 421.70703125 406.234375 c 0
 429.24609375 406.234375 435.958007812 402.751953125 440.370117188 397.31640625 c 0
 440.392578125 397.325195312 482.859375 345.000976562 482.859375 345.000976562 c 2
 486.21875 340.861328125 488.234375 335.588867188 488.234375 329.84765625 c 0
 488.234375 325.01171875 486.796875 320.466796875 484.338867188 316.69140625 c 1
 484.344726562 316.732421875 391.015625 173.525390625 391.015625 173.525390625 c 2
 388.557617188 169.751953125 387.125976562 165.247070312 387.125976562 160.41015625 c 0
 387.125976562 147.130859375 397.892578125 136.325195312 411.173828125 136.325195312 c 0
 411.188476562 136.350585938 643.12109375 136.325195312 643.12109375 136.325195312 c 2
 656.40234375 136.325195312 667.18359375 147.106445312 667.18359375 160.385742188 c 0
 667.18359375 166.126953125 665.16015625 171.416015625 661.80078125 175.555664062 c 1
 661.80859375 175.5390625 265.739257812 663.234375 265.739257812 663.234375 c 2
 254.538085938 677.02734375 247.823242188 694.60546875 247.823242188 713.7421875 c 0
 247.823242188 758.008789062 283.733398438 794 328 794 c 0
 328.02734375 793.946289062 781.481445312 794 781.481445312 794 c 2
 825.748046875 794 861.6875 758.0625 861.6875 713.796875 c 0
 861.6875 697.67578125 856.872070312 682.577148438 848.672851562 669.998046875 c 1
 848.72265625 670.08203125 687.505859375 422.751953125 687.505859375 422.751953125 c 2
 683.212890625 416.162109375 675.778320312 411.8046875 667.3359375 411.8046875 c 0
 659.794921875 411.8046875 653.084960938 415.287109375 648.672851562 420.721679688 c 0
 648.6484375 420.713867188 606.18359375 473.040039062 606.18359375 473.040039062 c 2
 602.822265625 477.177734375 600.80859375 482.450195312 600.80859375 488.19140625 c 0
 600.80859375 493.02734375 602.244140625 497.57421875 604.704101562 501.34765625 c 1
 604.698242188 501.306640625 698.025390625 644.513671875 698.025390625 644.513671875 c 2
 700.485351562 648.287109375 701.915039062 652.791992188 701.915039062 657.627929688 c 0
 701.915039062 670.907226562 691.1484375 681.713867188 677.869140625 681.713867188 c 0
 677.854492188 681.690429688 445.919921875 681.713867188 445.919921875 681.713867188 c 2
522.40625 -181.01171875 m 2
 522.40625 -181.01171875 462.639648438 -41.5654296875 462.649414062 -41.583984375 c 1
 461.405273438 -38.677734375 460.705078125 -35.4619140625 460.705078125 -32.1044921875 c 0
 460.705078125 -18.8251953125 471.485351562 -8.04296875 484.764648438 -8.04296875 c 2
 484.764648438 -8.04296875 604.265625 -8.0615234375 604.276367188 -8.04296875 c 0
 617.557617188 -8.04296875 628.326171875 -18.841796875 628.326171875 -32.12109375 c 0
 628.326171875 -35.48046875 627.637695312 -38.677734375 626.391601562 -41.583984375 c 2
 626.391601562 -41.583984375 566.66015625 -181.01171875 566.63671875 -181.01171875 c 0
 562.958984375 -189.59375 554.454101562 -195.61328125 544.532226562 -195.61328125 c 0
 534.610351562 -195.61328125 526.083984375 -189.59375 522.40625 -181.01171875 c 2
EndSplineSet
EndChar

StartChar: Idieresis
Encoding: 207 207 3
Width: 1016
Flags: HW
LayerCount: 2
Fore
SplineSet
240.370117188 148.040039062 m 1
 240.3203125 147.95703125 401.53515625 395.2890625 401.53515625 395.2890625 c 2
 405.936532372 402.041370286 413.264648438 406.234375 421.70703125 406.234375 c 0
 429.24609375 406.234375 435.958007812 402.751953125 440.370117188 397.31640625 c 0
 440.392578125 397.325195312 482.859375 345.000976562 482.859375 345.000976562 c 2
 486.21875 340.861328125 488.234375 335.588867188 488.234375 329.84765625 c 0
 488.234375 325.01171875 486.796875 320.466796875 484.338867188 316.69140625 c 1
 484.344726562 316.732421875 391.143739366 173.957370522 391.015625 173.525390625 c 2
 388.556410139 169.752739944 387.125976562 165.247070312 387.125976562 160.41015625 c 1
 310.539265614 171.684358271 301.253190506 16.7352777859 240.370117188 148.040039062 c 1
EndSplineSet
EndChar

StartChar: ae
Encoding: 230 230 4
Width: 1016
Flags: HW
LayerCount: 2
Fore
SplineSet
445.919921875 681.713867188 m 2
 432.640625 681.713867188 421.859375 670.932617188 421.859375 657.653320312 c 0
 421.859375 651.912109375 423.880859375 646.623046875 427.2421875 642.485351562 c 1
 427.234375 642.5 823.301757812 154.8046875 823.301757812 154.8046875 c 2
 834.502929688 141.01171875 841.219726562 123.432617188 841.219726562 104.295898438 c 0
 841.219726562 60.0302734375 805.309570312 24.0380859375 761.04296875 24.0380859375 c 0
 761.015625 24.0927734375 307.55859375 24.0380859375 307.55859375 24.0380859375 c 2
 263.29296875 24.0380859375 227.35546875 59.9755859375 227.35546875 104.2421875 c 0
 227.35546875 120.36328125 232.170898438 135.461914062 240.370117188 148.040039062 c 1
 240.3203125 147.95703125 401.53515625 395.2890625 401.53515625 395.2890625 c 2
 405.830078125 401.875976562 413.264648438 406.234375 421.70703125 406.234375 c 0
 429.24609375 406.234375 435.958007812 402.751953125 440.370117188 397.31640625 c 0
 440.392578125 397.325195312 482.859375 345.000976562 482.859375 345.000976562 c 2
 486.21875 340.861328125 488.234375 335.588867188 488.234375 329.84765625 c 0
 488.234375 325.01171875 486.796875 320.466796875 484.338867188 316.69140625 c 1
 484.344726562 316.732421875 391.015625 173.525390625 391.015625 173.525390625 c 2
 388.557617188 169.751953125 387.125976562 165.247070312 387.125976562 160.41015625 c 0
 387.125976562 147.130859375 397.892578125 136.325195312 411.173828125 136.325195312 c 0
 411.188476562 136.350585938 643.12109375 136.325195312 643.12109375 136.325195312 c 2
 656.40234375 136.325195312 667.18359375 147.106445312 667.18359375 160.385742188 c 0
 667.18359375 166.126953125 665.16015625 171.416015625 661.80078125 175.555664062 c 1
 661.80859375 175.5390625 265.739257812 663.234375 265.739257812 663.234375 c 2
 254.538085938 677.02734375 247.823242188 694.60546875 247.823242188 713.7421875 c 0
 247.823242188 758.008789062 283.733398438 794 328 794 c 0
 328.02734375 793.946289062 781.481445312 794 781.481445312 794 c 2
 825.748046875 794 861.6875 758.0625 861.6875 713.796875 c 0
 861.6875 697.67578125 856.872070312 682.577148438 848.672851562 669.998046875 c 1
 848.72265625 670.08203125 687.505859375 422.751953125 687.505859375 422.751953125 c 2
 683.212890625 416.162109375 675.778320312 411.8046875 667.3359375 411.8046875 c 0
 659.794921875 411.8046875 653.084960938 415.287109375 648.672851562 420.721679688 c 0
 648.6484375 420.713867188 606.18359375 473.040039062 606.18359375 473.040039062 c 2
 602.822265625 477.177734375 600.80859375 482.450195312 600.80859375 488.19140625 c 0
 600.80859375 493.02734375 602.244140625 497.57421875 604.704101562 501.34765625 c 1
 604.698242188 501.306640625 698.025390625 644.513671875 698.025390625 644.513671875 c 2
 700.485351562 648.287109375 701.915039062 652.791992188 701.915039062 657.627929688 c 0
 701.915039062 670.907226562 691.1484375 681.713867188 677.869140625 681.713867188 c 0
 677.854492188 681.690429688 445.919921875 681.713867188 445.919921875 681.713867188 c 2
522.40625 -181.01171875 m 2
 522.40625 -181.01171875 462.639648438 -41.5654296875 462.649414062 -41.583984375 c 1
 461.405273438 -38.677734375 460.705078125 -35.4619140625 460.705078125 -32.1044921875 c 0
 460.705078125 -18.8251953125 471.485351562 -8.04296875 484.764648438 -8.04296875 c 2
 484.764648438 -8.04296875 604.265625 -8.0615234375 604.276367188 -8.04296875 c 0
 617.557617188 -8.04296875 628.326171875 -18.841796875 628.326171875 -32.12109375 c 0
 628.326171875 -35.48046875 627.637695312 -38.677734375 626.391601562 -41.583984375 c 2
 626.391601562 -41.583984375 566.66015625 -181.01171875 566.63671875 -181.01171875 c 0
 562.958984375 -189.59375 554.454101562 -195.61328125 544.532226562 -195.61328125 c 0
 534.610351562 -195.61328125 526.083984375 -189.59375 522.40625 -181.01171875 c 2
EndSplineSet
Comment: "mid loading frame"
EndChar

StartChar: Uacute
Encoding: 218 218 5
Width: 1016
Flags: HW
LayerCount: 2
Fore
SplineSet
506.13671875 545 m 1
 621.991013227 402.687524488 823.301757812 154.8046875 823.301757812 154.8046875 c 2
 834.712599694 140.766390507 841.219726562 123.432617188 841.219726562 104.295898438 c 0
 841.219726562 60.0302734375 805.309570312 24.0380859375 761.04296875 24.0380859375 c 0
 761.015625 24.0927734375 307.55859375 24.0380859375 307.55859375 24.0380859375 c 2
 263.29296875 24.0380859375 227.35546875 59.9755859375 227.35546875 104.2421875 c 0
 227.35546875 120.36328125 232.170898438 135.461914062 240.370117188 148.040039062 c 1
 240.3203125 147.95703125 401.53515625 395.2890625 401.53515625 395.2890625 c 2
 405.830078125 401.875976562 413.264648438 406.234375 421.70703125 406.234375 c 0
 429.24609375 406.234375 435.958007812 402.751953125 440.370117188 397.31640625 c 0
 440.392578125 397.325195312 482.859375 345.000976562 482.859375 345.000976562 c 2
 486.21875 340.861328125 488.234375 335.588867188 488.234375 329.84765625 c 0
 488.234375 325.01171875 486.796875 320.466796875 484.338867188 316.69140625 c 1
 484.344726562 316.732421875 391.015625 173.525390625 391.015625 173.525390625 c 2
 388.557617188 169.751953125 387.125976562 165.247070312 387.125976562 160.41015625 c 0
 387.125976562 147.130859375 397.892578125 136.325195312 411.173828125 136.325195312 c 0
 411.188476562 136.350585938 643.12109375 136.325195312 643.12109375 136.325195312 c 2
 656.40234375 136.325195312 667.18359375 147.106445312 667.18359375 160.385742188 c 0
 667.18359375 166.126953125 665.16015625 171.416015625 661.80078125 175.555664062 c 1
 661.806113712 175.544332581 477.286422023 402.74896919 360.13671875 547 c 1
 349.12890625 665.2734375 442.8828125 574.7421875 506.13671875 545 c 1
EndSplineSet
EndChar

StartChar: Ugrave
Encoding: 217 217 6
Width: 1016
Flags: HW
LayerCount: 2
Fore
SplineSet
524.04296875 523 m 1
 641.53954404 378.616552585 823.301757812 154.8046875 823.301757812 154.8046875 c 2
 834.712043119 140.76595675 841.219726562 123.432617188 841.219726562 104.295898438 c 0
 841.219726562 60.0302734375 805.309570312 24.0380859375 761.04296875 24.0380859375 c 0
 761.015625 24.0927734375 307.55859375 24.0380859375 307.55859375 24.0380859375 c 2
 263.29296875 24.0380859375 227.35546875 59.9755859375 227.35546875 104.2421875 c 0
 227.35546875 120.36328125 232.170898438 135.461914062 240.370117188 148.040039062 c 1
 240.3203125 147.95703125 401.53515625 395.2890625 401.53515625 395.2890625 c 2
 405.830078125 401.875976562 413.264648438 406.234375 421.70703125 406.234375 c 0
 429.24609375 406.234375 435.958007812 402.751953125 440.370117188 397.31640625 c 0
 440.392578125 397.325195312 482.859375 345.000976562 482.859375 345.000976562 c 2
 486.21875 340.861328125 488.234375 335.588867188 488.234375 329.84765625 c 0
 488.234375 325.01171875 486.796875 320.466796875 484.338867188 316.69140625 c 1
 484.344726562 316.732421875 391.015625 173.525390625 391.015625 173.525390625 c 2
 388.557617188 169.751953125 387.125976562 165.247070312 387.125976562 160.41015625 c 0
 387.125976562 147.130859375 397.892578125 136.325195312 411.173828125 136.325195312 c 0
 411.188476562 136.350585938 643.12109375 136.325195312 643.12109375 136.325195312 c 2
 656.40234375 136.325195312 667.18359375 147.106445312 667.18359375 160.385742188 c 0
 667.18359375 166.126953125 665.16015625 171.416015625 661.80078125 175.555664062 c 1
 661.805242422 175.546184072 532.658734432 334.567505585 421.858398438 471 c 1
 396.886338589 584.777664433 486.048885678 526.535210469 524.04296875 523 c 1
EndSplineSet
EndChar

StartChar: Ocircumflex
Encoding: 212 212 7
Width: 1016
Flags: HW
LayerCount: 2
Fore
SplineSet
841.219726562 104.295898438 m 1
 841.219726562 60.0302734375 792 22 761.04296875 24.0380859375 c 0
 760.981958344 24.0421026163 307.55859375 24.0380859375 307.55859375 24.0380859375 c 2
 263.29296875 24.0380859375 227.35546875 59.9755859375 227.35546875 104.2421875 c 0
 227.35546875 120.36328125 232.170898438 135.461914062 240.370117188 148.040039062 c 1
 240.3203125 147.95703125 401.53515625 395.2890625 401.53515625 395.2890625 c 2
 405.830078125 401.875976562 413.264648438 406.234375 421.70703125 406.234375 c 0
 429.24609375 406.234375 435.958007812 402.751953125 440.370117188 397.31640625 c 0
 440.392578125 397.325195312 482.859375 345.000976562 482.859375 345.000976562 c 2
 486.21875 340.861328125 488.234375 335.588867188 488.234375 329.84765625 c 0
 488.234375 325.01171875 486.796875 320.466796875 484.338867188 316.69140625 c 1
 484.344726562 316.732421875 391.015625 173.525390625 391.015625 173.525390625 c 2
 388.557617188 169.751953125 387.125976562 165.247070312 387.125976562 160.41015625 c 0
 387.125976562 147.130859375 397.892578125 136.325195312 411.173828125 136.325195312 c 0
 411.188476562 136.350585938 642.897944305 136.10206398 643.12109375 136.325195312 c 2
 656.40234375 136.325195312 667.18359375 147.106445312 667.18359375 160.385742188 c 1
 706.645507812 228.940429688 783.278320312 120.631835938 841.219726562 104.295898438 c 1
EndSplineSet
EndChar

StartChar: Ntilde
Encoding: 209 209 8
Width: 1016
Flags: HW
LayerCount: 2
Fore
SplineSet
307.55859375 24.0380859375 m 5
 262.999996823 24.0339107349 227.35546875 59.9755859375 227.35546875 104.2421875 c 0
 227.35546875 120.36328125 232.170898438 135.461914062 240.370117188 148.040039062 c 1
 240.3203125 147.95703125 401.53515625 395.2890625 401.53515625 395.2890625 c 2
 405.830078125 401.875976562 413.264648438 406.234375 421.70703125 406.234375 c 0
 429.24609375 406.234375 435.958007812 402.751953125 440.370117188 397.31640625 c 0
 440.392578125 397.325195312 482.859375 345.000976562 482.859375 345.000976562 c 2
 486.21875 340.861328125 488.234375 335.588867188 488.234375 329.84765625 c 0
 488.234375 325.01171875 486.796875 320.466796875 484.338867188 316.69140625 c 1
 484.344726562 316.732421875 391.015625 173.525390625 391.015625 173.525390625 c 2
 388.557617188 169.751953125 387.125976562 165.247070312 387.125976562 160.41015625 c 0
 387.125976562 147.130859375 397.892578125 136.325195312 411.173828125 136.325195312 c 5
 439.144226781 135.363525715 524.597119226 33.0250204795 307.55859375 24.0380859375 c 5
EndSplineSet
EndChar

StartChar: Eth
Encoding: 208 208 9
Width: 1016
Flags: HW
LayerCount: 2
Fore
SplineSet
227.35546875 104.2421875 m 1
 227.35546875 120.36328125 232.170898438 135.461914062 240.370117188 148.040039062 c 1
 240.3203125 147.95703125 401.53515625 395.2890625 401.53515625 395.2890625 c 2
 405.830078125 401.875976562 413.264648438 406.234375 421.70703125 406.234375 c 0
 429.24609375 406.234375 435.958007812 402.751953125 440.370117188 397.31640625 c 0
 440.392578125 397.325195312 482.859375 345.000976562 482.859375 345.000976562 c 2
 486.21875 340.861328125 488.234375 335.588867188 488.234375 329.84765625 c 0
 488.234375 325.01171875 486.796875 320.466796875 484.338867188 316.69140625 c 1
 484.344726562 316.732421875 391.015625 173.525390625 391.015625 173.525390625 c 2
 388.557617188 169.751953125 387.125976562 165.247070312 387.125976562 160.41015625 c 0
 387.125976562 147.130859375 397.892578125 136.325195312 411.173828125 136.325195312 c 1
 350.794921875 121.715820312 399 -32 227.35546875 104.2421875 c 1
EndSplineSet
EndChar

StartChar: Ograve
Encoding: 210 210 10
Width: 1016
Flags: HW
LayerCount: 2
Fore
SplineSet
516 24.0576171875 m 1
 409.04623765 24.0503254776 307.55859375 24.0380859375 307.55859375 24.0380859375 c 2
 262.999996823 24.0339107349 227.35546875 59.9755859375 227.35546875 104.2421875 c 0
 227.35546875 120.36328125 232.170898438 135.461914062 240.370117188 148.040039062 c 1
 240.3203125 147.95703125 401.53515625 395.2890625 401.53515625 395.2890625 c 2
 405.830078125 401.875976562 413.264648438 406.234375 421.70703125 406.234375 c 0
 429.24609375 406.234375 435.958007812 402.751953125 440.370117188 397.31640625 c 0
 440.392578125 397.325195312 482.859375 345.000976562 482.859375 345.000976562 c 2
 486.21875 340.861328125 488.234375 335.588867188 488.234375 329.84765625 c 0
 488.234375 325.01171875 486.796875 320.466796875 484.338867188 316.69140625 c 1
 484.344726562 316.732421875 391.015625 173.525390625 391.015625 173.525390625 c 2
 388.557617188 169.751953125 387.125976562 165.247070312 387.125976562 160.41015625 c 0
 387.125976562 147.130859375 397.892578125 136.325195312 411.173828125 136.325195312 c 0
 411.185830923 136.325195312 450.070142931 136.33747442 496 136.3359375 c 0
 610.140264523 136.3321181 516 24.0576171875 516 24.0576171875 c 1
EndSplineSet
EndChar

StartChar: Oacute
Encoding: 211 211 11
Width: 1016
Flags: HW
LayerCount: 2
Fore
SplineSet
594 136.231445312 m 1
 525.925470628 136.225293155 411.194455536 136.325195312 411.173828125 136.325195312 c 0
 397.892578125 136.325195312 387.125976562 147.130859375 387.125976562 160.41015625 c 0
 387.125976562 165.247070312 388.557617188 169.751953125 391.015625 173.525390625 c 2
 391.015625 173.525390625 484.344726562 316.732421875 484.338867188 316.69140625 c 1
 486.796875 320.466796875 488.234375 325.01171875 488.234375 329.84765625 c 0
 488.234375 335.588867188 486.21875 340.861328125 482.859375 345.000976562 c 2
 482.859375 345.000976562 440.392578125 397.325195312 440.370117188 397.31640625 c 0
 435.958007812 402.751953125 429.24609375 406.234375 421.70703125 406.234375 c 0
 413.264648438 406.234375 405.830078125 401.875976562 401.53515625 395.2890625 c 2
 401.53515625 395.2890625 240.3203125 147.95703125 240.370117188 148.040039062 c 1
 232.170898438 135.461914062 227.35546875 120.36328125 227.35546875 104.2421875 c 0
 227.35546875 59.9755859375 262.999999787 24.0378347305 307.55859375 24.0380859375 c 2
 307.55859375 24.0380859375 519.921861528 24.0399671706 654 24.0400390625 c 1
 689.630859375 106.252929688 609.081054688 95.1767578125 594 136.231445312 c 1
EndSplineSet
EndChar

StartChar: multiply
Encoding: 215 215 12
Width: 1016
Flags: HW
LayerCount: 2
Fore
SplineSet
637.166992188 384 m 1
 672.971679688 339.912109375 711.361201835 292.642150356 741.119051163 256.00000284 c 1
 789.251637377 196.732234359 823.301757812 154.8046875 823.301757812 154.8046875 c 2
 834.706136144 140.762002706 841.219726562 123.432617188 841.219726562 104.295898438 c 0
 841.219726562 60.0302734375 805.309570312 24.0380859375 761.04296875 24.0380859375 c 0
 761.015625 24.0927734375 307.55859375 24.0380859375 307.55859375 24.0380859375 c 2
 263.29296875 24.0380859375 227.35546875 59.9755859375 227.35546875 104.2421875 c 0
 227.35546875 120.36328125 232.170898438 135.461914062 240.370117188 148.040039062 c 1
 240.3203125 147.95703125 401.53515625 395.2890625 401.53515625 395.2890625 c 2
 405.830078125 401.875976562 413.264648438 406.234375 421.70703125 406.234375 c 0
 429.24609375 406.234375 435.958007812 402.751953125 440.370117188 397.31640625 c 0
 440.392578125 397.325195312 482.859375 345.000976562 482.859375 345.000976562 c 2
 486.21875 340.861328125 488.234375 335.588867188 488.234375 329.84765625 c 0
 488.234375 325.01171875 486.796875 320.466796875 484.338867188 316.69140625 c 1
 484.344726562 316.732421875 391.015625 173.525390625 391.015625 173.525390625 c 2
 388.557617188 169.751953125 387.125976562 165.247070312 387.125976562 160.41015625 c 0
 387.125976562 147.130859375 397.892578125 136.325195312 411.173828125 136.325195312 c 0
 411.188476562 136.350585938 643.12109375 136.325195312 643.12109375 136.325195312 c 2
 656.40234375 136.325195312 667.18359375 147.106445312 667.18359375 160.385742188 c 0
 667.18359375 166.126953125 665.16015625 171.416015625 661.80078125 175.555664062 c 1
 661.802323326 175.552387151 646.337880835 194.523049916 621.540813695 224.999997881 c 1
 597.731881687 254.262473875 565.319294567 294.132481323 529.732421875 338 c 1
 493.865498521 434.620084551 588.650390625 409.140625 637.166992188 384 c 1
EndSplineSet
EndChar

StartChar: Odieresis
Encoding: 214 214 13
Width: 1016
Flags: HW
LayerCount: 2
Fore
SplineSet
621.541015625 225 m 1
 646.337880835 194.523049916 661.802323326 175.552387151 661.80078125 175.555664062 c 1
 665.16015625 171.416015625 667.18359375 166.126953125 667.18359375 160.385742188 c 0
 667.18359375 147.106445312 656.40234375 136.325195312 643.12109375 136.325195312 c 2
 643.12109375 136.325195312 411.188476562 136.350585938 411.173828125 136.325195312 c 0
 397.892578125 136.325195312 387.125976562 147.130859375 387.125976562 160.41015625 c 0
 387.125976562 165.247070312 388.557617188 169.751953125 391.015625 173.525390625 c 2
 391.015625 173.525390625 484.344726562 316.732421875 484.338867188 316.69140625 c 1
 486.796875 320.466796875 488.234375 325.01171875 488.234375 329.84765625 c 0
 488.234375 335.588867188 486.21875 340.861328125 482.859375 345.000976562 c 2
 482.859375 345.000976562 440.392578125 397.325195312 440.370117188 397.31640625 c 0
 435.958007812 402.751953125 429.24609375 406.234375 421.70703125 406.234375 c 0
 413.264648438 406.234375 405.830078125 401.875976562 401.53515625 395.2890625 c 2
 401.53515625 395.2890625 240.3203125 147.95703125 240.370117188 148.040039062 c 1
 232.170898438 135.461914062 227.35546875 120.36328125 227.35546875 104.2421875 c 0
 227.35546875 59.9755859375 263.29296875 24.0380859375 307.55859375 24.0380859375 c 2
 307.55859375 24.0380859375 761.015625 24.0927734375 761.04296875 24.0380859375 c 0
 805.309570312 24.0380859375 841.219726562 60.0302734375 841.219726562 104.295898438 c 0
 841.219726562 123.432617188 834.706426699 140.761583599 823.301757812 154.8046875 c 2
 823.301757812 154.8046875 789.251637377 196.732234359 741.119140625 256 c 1
 677.568189371 279.008742947 595 317 621.541015625 225 c 1
EndSplineSet
EndChar

StartChar: Otilde
Encoding: 213 213 14
Width: 1016
Flags: HW
LayerCount: 2
Fore
SplineSet
823.301757812 154.8046875 m 1
 834.706136144 140.762002706 841.219726562 123.432617188 841.219726562 104.295898438 c 0
 841.219726562 60.0302734375 805.309570312 24.0380859375 761.04296875 24.0380859375 c 0
 761.015625 24.0927734375 307.55859375 24.0380859375 307.55859375 24.0380859375 c 2
 263.29296875 24.0380859375 227.35546875 59.9755859375 227.35546875 104.2421875 c 0
 227.35546875 120.36328125 232.170898438 135.461914062 240.370117188 148.040039062 c 1
 240.3203125 147.95703125 401.53515625 395.2890625 401.53515625 395.2890625 c 2
 405.830078125 401.875976562 413.264648438 406.234375 421.70703125 406.234375 c 0
 429.24609375 406.234375 435.958007812 402.751953125 440.370117188 397.31640625 c 0
 440.392578125 397.325195312 482.859375 345.000976562 482.859375 345.000976562 c 2
 486.21875 340.861328125 488.234375 335.588867188 488.234375 329.84765625 c 0
 488.234375 325.01171875 486.796875 320.466796875 484.338867188 316.69140625 c 1
 484.344726562 316.732421875 391.015625 173.525390625 391.015625 173.525390625 c 2
 388.557617188 169.751953125 387.125976562 165.247070312 387.125976562 160.41015625 c 0
 387.125976562 147.130859375 397.892578125 136.325195312 411.173828125 136.325195312 c 0
 411.188476562 136.350585938 643.12109375 136.325195312 643.12109375 136.325195312 c 2
 656.40234375 136.325195312 667.18359375 147.106445312 667.18359375 160.385742188 c 0
 667.18359375 166.126953125 665.16015625 171.416015625 661.80078125 175.555664062 c 1
 713.642268818 173.784895885 675.400098064 259.682022504 823.301757812 154.8046875 c 1
EndSplineSet
EndChar

StartChar: Oslash
Encoding: 216 216 15
Width: 1016
Flags: HW
LayerCount: 2
Fore
SplineSet
568.13671875 469 m 1
 681.951171875 328.856445312 823.301757812 154.8046875 823.301757812 154.8046875 c 2
 834.706136144 140.762002706 841.219726562 123.432617188 841.219726562 104.295898438 c 0
 841.219726562 60.0302734375 805.309570312 24.0380859375 761.04296875 24.0380859375 c 0
 761.015625 24.0927734375 307.55859375 24.0380859375 307.55859375 24.0380859375 c 2
 263.29296875 24.0380859375 227.35546875 59.9755859375 227.35546875 104.2421875 c 0
 227.35546875 120.36328125 232.170898438 135.461914062 240.370117188 148.040039062 c 1
 240.3203125 147.95703125 401.53515625 395.2890625 401.53515625 395.2890625 c 2
 405.830078125 401.875976562 413.264648438 406.234375 421.70703125 406.234375 c 0
 429.24609375 406.234375 435.958007812 402.751953125 440.370117188 397.31640625 c 0
 440.392578125 397.325195312 482.859375 345.000976562 482.859375 345.000976562 c 2
 486.21875 340.861328125 488.234375 335.588867188 488.234375 329.84765625 c 0
 488.234375 325.01171875 486.796875 320.466796875 484.338867188 316.69140625 c 1
 484.344726562 316.732421875 391.015625 173.525390625 391.015625 173.525390625 c 2
 388.557617188 169.751953125 387.125976562 165.247070312 387.125976562 160.41015625 c 0
 387.125976562 147.130859375 397.892578125 136.325195312 411.173828125 136.325195312 c 0
 411.188476562 136.350585938 643.12109375 136.325195312 643.12109375 136.325195312 c 2
 656.40234375 136.325195312 667.18359375 147.106445312 667.18359375 160.385742188 c 0
 667.18359375 166.126953125 665.16015625 171.416015625 661.80078125 175.555664062 c 1
 661.804619263 175.547508285 566.005509489 293.072080165 468.961914062 413 c 0
 413.326164747 481.755487206 528.853070946 496.75681595 568.13671875 469 c 1
EndSplineSet
EndChar

StartChar: Iacute
Encoding: 205 205 16
Width: 1016
Flags: HW
LayerCount: 2
Fore
SplineSet
348.549804688 314 m 1
 377.801358212 358.877226335 401.53515625 395.2890625 401.53515625 395.2890625 c 2
 405.936442581 402.041427618 413.264648438 406.234375 421.70703125 406.234375 c 0
 429.24609375 406.234375 435.958007812 402.751953125 440.370117188 397.31640625 c 0
 440.392578125 397.325195312 482.859375 345.000976562 482.859375 345.000976562 c 2
 486.21875 340.861328125 488.234375 335.588867188 488.234375 329.84765625 c 0
 488.234375 325.01171875 486.796875 320.466796875 484.338867188 316.69140625 c 1
 484.340685219 316.70413247 475.369289973 302.967664552 462.989257812 284 c 1
 426 328 355.126259345 277.692552254 348.549804688 314 c 1
EndSplineSet
Comment: "1st loading frame"
EndChar

StartChar: Icircumflex
Encoding: 206 206 17
Width: 1016
Flags: HW
LayerCount: 2
Fore
SplineSet
284.670898438 216 m 5
 332.380197753 289.19314752 401.53515625 395.2890625 401.53515625 395.2890625 c 2
 405.936472662 402.041408411 413.264648438 406.234375 421.70703125 406.234375 c 0
 429.24609375 406.234375 435.958007812 402.751953125 440.370117188 397.31640625 c 0
 440.392578125 397.325195312 482.859375 345.000976562 482.859375 345.000976562 c 2
 486.21875 340.861328125 488.234375 335.588867188 488.234375 329.84765625 c 0
 488.234375 325.01171875 486.796875 320.466796875 484.338867188 316.69140625 c 1
 484.342799413 316.71893183 442.368697206 252.425669853 414.71875 210 c 5
 368.701116592 208.101352877 311.605503388 100.607439056 284.670898438 216 c 5
EndSplineSet
EndChar

StartChar: aring
Encoding: 229 229 18
Width: 1016
Flags: HW
LayerCount: 2
Fore
SplineSet
609.076171875 -82 m 1
 618.824607877 -59.2471897442 626.391601562 -41.583984375 626.391601562 -41.583984375 c 2
 627.576408824 -38.8185208732 628.326171875 -35.48046875 628.326171875 -32.12109375 c 0
 628.326171875 -18.841796875 617.557617188 -8.04296875 604.276367188 -8.04296875 c 0
 604.265625 -8.0615234375 484.764648438 -8.04296875 484.764648438 -8.04296875 c 2
 471.485351562 -8.04296875 460.705078125 -18.8251953125 460.705078125 -32.1044921875 c 0
 460.705078125 -35.4619140625 461.405273438 -38.677734375 462.649414062 -41.583984375 c 1
 462.645887046 -41.5772830432 470.439664184 -59.7625504916 480.399414062 -83 c 1
 518.458414661 -135.36990192 558 -42 609.076171875 -82 c 1
445.919921875 681.713867188 m 2
 432.640625 681.713867188 421.859375 670.932617188 421.859375 657.653320312 c 0
 421.859375 651.912109375 423.880859375 646.623046875 427.2421875 642.485351562 c 1
 427.234375 642.5 823.301757812 154.8046875 823.301757812 154.8046875 c 2
 834.502929688 141.01171875 841.219726562 123.432617188 841.219726562 104.295898438 c 0
 841.219726562 60.0302734375 805.309570312 24.0380859375 761.04296875 24.0380859375 c 0
 761.015625 24.0927734375 307.55859375 24.0380859375 307.55859375 24.0380859375 c 2
 263.29296875 24.0380859375 227.35546875 59.9755859375 227.35546875 104.2421875 c 0
 227.35546875 120.36328125 232.170898438 135.461914062 240.370117188 148.040039062 c 1
 240.3203125 147.95703125 401.53515625 395.2890625 401.53515625 395.2890625 c 2
 405.830078125 401.875976562 413.264648438 406.234375 421.70703125 406.234375 c 0
 429.24609375 406.234375 435.958007812 402.751953125 440.370117188 397.31640625 c 0
 440.392578125 397.325195312 482.859375 345.000976562 482.859375 345.000976562 c 2
 486.21875 340.861328125 488.234375 335.588867188 488.234375 329.84765625 c 0
 488.234375 325.01171875 486.796875 320.466796875 484.338867188 316.69140625 c 1
 484.344726562 316.732421875 391.015625 173.525390625 391.015625 173.525390625 c 2
 388.557617188 169.751953125 387.125976562 165.247070312 387.125976562 160.41015625 c 0
 387.125976562 147.130859375 397.892578125 136.325195312 411.173828125 136.325195312 c 0
 411.188476562 136.350585938 643.12109375 136.325195312 643.12109375 136.325195312 c 2
 656.40234375 136.325195312 667.18359375 147.106445312 667.18359375 160.385742188 c 0
 667.18359375 166.126953125 665.16015625 171.416015625 661.80078125 175.555664062 c 1
 661.80859375 175.5390625 265.739257812 663.234375 265.739257812 663.234375 c 2
 254.538085938 677.02734375 247.823242188 694.60546875 247.823242188 713.7421875 c 0
 247.823242188 758.008789062 283.733398438 794 328 794 c 0
 328.02734375 793.946289062 781.481445312 794 781.481445312 794 c 2
 825.748046875 794 861.6875 758.0625 861.6875 713.796875 c 0
 861.6875 697.67578125 856.872070312 682.577148438 848.672851562 669.998046875 c 1
 848.72265625 670.08203125 687.505859375 422.751953125 687.505859375 422.751953125 c 2
 683.212890625 416.162109375 675.778320312 411.8046875 667.3359375 411.8046875 c 0
 659.794921875 411.8046875 653.084960938 415.287109375 648.672851562 420.721679688 c 0
 648.6484375 420.713867188 606.18359375 473.040039062 606.18359375 473.040039062 c 2
 602.822265625 477.177734375 600.80859375 482.450195312 600.80859375 488.19140625 c 0
 600.80859375 493.02734375 602.244140625 497.57421875 604.704101562 501.34765625 c 1
 604.698242188 501.306640625 698.025390625 644.513671875 698.025390625 644.513671875 c 2
 700.485351562 648.287109375 701.915039062 652.791992188 701.915039062 657.627929688 c 0
 701.915039062 670.907226562 691.1484375 681.713867188 677.869140625 681.713867188 c 0
 677.854492188 681.690429688 445.919921875 681.713867188 445.919921875 681.713867188 c 2
EndSplineSet
EndChar

StartChar: adieresis
Encoding: 228 228 19
Width: 1016
Flags: HW
LayerCount: 2
Fore
SplineSet
445.919921875 681.713867188 m 2
 432.640625 681.713867188 421.859375 670.932617188 421.859375 657.653320312 c 0
 421.859375 651.912109375 423.880859375 646.623046875 427.2421875 642.485351562 c 1
 427.234375 642.5 823.301757812 154.8046875 823.301757812 154.8046875 c 2
 834.502929688 141.01171875 841.219726562 123.432617188 841.219726562 104.295898438 c 0
 841.219726562 60.0302734375 805.309570312 24.0380859375 761.04296875 24.0380859375 c 0
 761.015625 24.0927734375 307.55859375 24.0380859375 307.55859375 24.0380859375 c 2
 263.29296875 24.0380859375 227.35546875 59.9755859375 227.35546875 104.2421875 c 0
 227.35546875 120.36328125 232.170898438 135.461914062 240.370117188 148.040039062 c 1
 240.3203125 147.95703125 401.53515625 395.2890625 401.53515625 395.2890625 c 2
 405.830078125 401.875976562 413.264648438 406.234375 421.70703125 406.234375 c 0
 429.24609375 406.234375 435.958007812 402.751953125 440.370117188 397.31640625 c 0
 440.392578125 397.325195312 482.859375 345.000976562 482.859375 345.000976562 c 2
 486.21875 340.861328125 488.234375 335.588867188 488.234375 329.84765625 c 0
 488.234375 325.01171875 486.796875 320.466796875 484.338867188 316.69140625 c 1
 484.344726562 316.732421875 391.015625 173.525390625 391.015625 173.525390625 c 2
 388.557617188 169.751953125 387.125976562 165.247070312 387.125976562 160.41015625 c 0
 387.125976562 147.130859375 397.892578125 136.325195312 411.173828125 136.325195312 c 0
 411.188476562 136.350585938 643.12109375 136.325195312 643.12109375 136.325195312 c 2
 656.40234375 136.325195312 667.18359375 147.106445312 667.18359375 160.385742188 c 0
 667.18359375 166.126953125 665.16015625 171.416015625 661.80078125 175.555664062 c 1
 661.80859375 175.5390625 265.739257812 663.234375 265.739257812 663.234375 c 2
 254.538085938 677.02734375 247.823242188 694.60546875 247.823242188 713.7421875 c 0
 247.823242188 758.008789062 283.733398438 794 328 794 c 0
 328.02734375 793.946289062 781.481445312 794 781.481445312 794 c 2
 825.748046875 794 861.6875 758.0625 861.6875 713.796875 c 0
 861.6875 697.67578125 856.872070312 682.577148438 848.672851562 669.998046875 c 1
 848.72265625 670.08203125 687.505859375 422.751953125 687.505859375 422.751953125 c 2
 683.212890625 416.162109375 675.778320312 411.8046875 667.3359375 411.8046875 c 0
 659.794921875 411.8046875 653.084960938 415.287109375 648.672851562 420.721679688 c 0
 648.6484375 420.713867188 606.18359375 473.040039062 606.18359375 473.040039062 c 2
 602.822265625 477.177734375 600.80859375 482.450195312 600.80859375 488.19140625 c 0
 600.80859375 493.02734375 602.244140625 497.57421875 604.704101562 501.34765625 c 1
 604.698242188 501.306640625 698.025390625 644.513671875 698.025390625 644.513671875 c 2
 700.485351562 648.287109375 701.915039062 652.791992188 701.915039062 657.627929688 c 0
 701.915039062 670.907226562 691.1484375 681.713867188 677.869140625 681.713867188 c 0
 677.854492188 681.690429688 445.919921875 681.713867188 445.919921875 681.713867188 c 2
EndSplineSet
EndChar

StartChar: Thorn
Encoding: 222 222 20
Width: 1016
Flags: HW
LayerCount: 2
Fore
SplineSet
328 794 m 1
 283.733398438 794 247.823242188 758.008789062 247.823242188 713.7421875 c 0
 247.823242188 694.60546875 254.538085938 677.02734375 265.739257812 663.234375 c 2
 265.739257812 663.234375 661.80859375 175.5390625 661.80078125 175.555664062 c 1
 665.16015625 171.416015625 667.18359375 166.126953125 667.18359375 160.385742188 c 0
 667.18359375 147.106445312 656.40234375 136.325195312 643.12109375 136.325195312 c 2
 643.12109375 136.325195312 411.188476562 136.350585938 411.173828125 136.325195312 c 0
 397.892578125 136.325195312 387.125976562 147.130859375 387.125976562 160.41015625 c 0
 387.125976562 165.247070312 388.557617188 169.751953125 391.015625 173.525390625 c 2
 391.015625 173.525390625 484.344726562 316.732421875 484.338867188 316.69140625 c 1
 486.796875 320.466796875 488.234375 325.01171875 488.234375 329.84765625 c 0
 488.234375 335.588867188 486.21875 340.861328125 482.859375 345.000976562 c 2
 482.859375 345.000976562 440.392578125 397.325195312 440.370117188 397.31640625 c 0
 435.958007812 402.751953125 429.24609375 406.234375 421.70703125 406.234375 c 0
 413.264648438 406.234375 405.830078125 401.875976562 401.53515625 395.2890625 c 2
 401.53515625 395.2890625 240.3203125 147.95703125 240.370117188 148.040039062 c 1
 232.170898438 135.461914062 227.35546875 120.36328125 227.35546875 104.2421875 c 0
 227.35546875 59.9755859375 263.29296875 24.0380859375 307.55859375 24.0380859375 c 2
 307.55859375 24.0380859375 761.015625 24.0927734375 761.04296875 24.0380859375 c 0
 805.309570312 24.0380859375 841.219726562 60.0302734375 841.219726562 104.295898438 c 0
 841.219726562 123.432617188 834.502929688 141.01171875 823.301757812 154.8046875 c 2
 823.301757812 154.8046875 427.234375 642.5 427.2421875 642.485351562 c 1
 423.880859375 646.623046875 421.859375 651.912109375 421.859375 657.653320312 c 0
 421.859375 670.932617188 432.640625 681.713867188 445.919921875 681.713867188 c 1
 461.569693391 800.433317912 428.475285921 785.000000089 328 794 c 1
EndSplineSet
EndChar

StartChar: Ucircumflex
Encoding: 219 219 21
Width: 1016
Flags: HW
LayerCount: 2
Fore
SplineSet
439.817382812 627 m 1
 534.099609375 510.909179688 823.301757812 154.8046875 823.301757812 154.8046875 c 2
 834.706529204 140.7616653 841.219726562 123.432617188 841.219726562 104.295898438 c 0
 841.219726562 60.0302734375 805.309570312 24.0380859375 761.04296875 24.0380859375 c 0
 761.015625 24.0927734375 307.55859375 24.0380859375 307.55859375 24.0380859375 c 2
 263.29296875 24.0380859375 227.35546875 59.9755859375 227.35546875 104.2421875 c 0
 227.35546875 120.36328125 232.170898438 135.461914062 240.370117188 148.040039062 c 1
 240.3203125 147.95703125 401.53515625 395.2890625 401.53515625 395.2890625 c 2
 405.830078125 401.875976562 413.264648438 406.234375 421.70703125 406.234375 c 0
 429.24609375 406.234375 435.958007812 402.751953125 440.370117188 397.31640625 c 0
 440.392578125 397.325195312 482.859375 345.000976562 482.859375 345.000976562 c 2
 486.21875 340.861328125 488.234375 335.588867188 488.234375 329.84765625 c 0
 488.234375 325.01171875 486.796875 320.466796875 484.338867188 316.69140625 c 1
 484.344726562 316.732421875 391.015625 173.525390625 391.015625 173.525390625 c 2
 388.557617188 169.751953125 387.125976562 165.247070312 387.125976562 160.41015625 c 0
 387.125976562 147.130859375 397.892578125 136.325195312 411.173828125 136.325195312 c 0
 411.188476562 136.350585938 643.12109375 136.325195312 643.12109375 136.325195312 c 2
 656.40234375 136.325195312 667.18359375 147.106445312 667.18359375 160.385742188 c 0
 667.18359375 166.126953125 665.16015625 171.416015625 661.80078125 175.555664062 c 1
 661.806756414 175.542966838 400.057617188 497.818359375 291.084960938 632 c 1
 327.177486797 737.69414495 398.625456163 618.679418323 439.817382812 627 c 1
EndSplineSet
EndChar

StartChar: Udieresis
Encoding: 220 220 22
Width: 1016
Flags: HW
LayerCount: 2
Fore
SplineSet
421.859375 657.653320312 m 1
 421.859375 651.912109375 423.880859375 646.623046875 427.2421875 642.485351562 c 1
 427.234375 642.5 823.301757812 154.8046875 823.301757812 154.8046875 c 2
 834.502929688 141.01171875 841.219726562 123.432617188 841.219726562 104.295898438 c 0
 841.219726562 60.0302734375 805.309570312 24.0380859375 761.04296875 24.0380859375 c 0
 761.015625 24.0927734375 307.55859375 24.0380859375 307.55859375 24.0380859375 c 2
 263.29296875 24.0380859375 227.35546875 59.9755859375 227.35546875 104.2421875 c 0
 227.35546875 120.36328125 232.170898438 135.461914062 240.370117188 148.040039062 c 1
 240.3203125 147.95703125 401.53515625 395.2890625 401.53515625 395.2890625 c 2
 405.830078125 401.875976562 413.264648438 406.234375 421.70703125 406.234375 c 0
 429.24609375 406.234375 435.958007812 402.751953125 440.370117188 397.31640625 c 0
 440.392578125 397.325195312 482.859375 345.000976562 482.859375 345.000976562 c 2
 486.21875 340.861328125 488.234375 335.588867188 488.234375 329.84765625 c 0
 488.234375 325.01171875 486.796875 320.466796875 484.338867188 316.69140625 c 1
 484.344726562 316.732421875 391.015625 173.525390625 391.015625 173.525390625 c 2
 388.557617188 169.751953125 387.125976562 165.247070312 387.125976562 160.41015625 c 0
 387.125976562 147.130859375 397.892578125 136.325195312 411.173828125 136.325195312 c 0
 411.188476562 136.350585938 643.12109375 136.325195312 643.12109375 136.325195312 c 2
 656.40234375 136.325195312 667.18359375 147.106445312 667.18359375 160.385742188 c 0
 667.18359375 166.126953125 665.16015625 171.416015625 661.80078125 175.555664062 c 1
 661.80859375 175.5390625 265.908686051 662.946295512 265.739257812 663.234375 c 2
 260.687751005 669.45439937 256.54895359 676.444474794 253.526367188 684 c 1
 340.03271583 762.049322376 362.802345832 669.560583074 421.859375 657.653320312 c 1
EndSplineSet
EndChar

StartChar: Yacute
Encoding: 221 221 23
Width: 1016
Flags: HW
LayerCount: 2
Fore
SplineSet
428.271484375 674 m 1
 424.292753422 669.707058469 421.859375 663.962099807 421.859375 657.653320312 c 0
 421.859375 651.912109375 423.880859375 646.623046875 427.2421875 642.485351562 c 1
 427.234375 642.5 823.301757812 154.8046875 823.301757812 154.8046875 c 2
 834.502929688 141.01171875 841.219726562 123.432617188 841.219726562 104.295898438 c 0
 841.219726562 60.0302734375 805.309570312 24.0380859375 761.04296875 24.0380859375 c 0
 761.015625 24.0927734375 307.55859375 24.0380859375 307.55859375 24.0380859375 c 2
 263.29296875 24.0380859375 227.35546875 59.9755859375 227.35546875 104.2421875 c 0
 227.35546875 120.36328125 232.170898438 135.461914062 240.370117188 148.040039062 c 1
 240.3203125 147.95703125 401.53515625 395.2890625 401.53515625 395.2890625 c 2
 405.830078125 401.875976562 413.264648438 406.234375 421.70703125 406.234375 c 0
 429.24609375 406.234375 435.958007812 402.751953125 440.370117188 397.31640625 c 0
 440.392578125 397.325195312 482.859375 345.000976562 482.859375 345.000976562 c 2
 486.21875 340.861328125 488.234375 335.588867188 488.234375 329.84765625 c 0
 488.234375 325.01171875 486.796875 320.466796875 484.338867188 316.69140625 c 1
 484.344726562 316.732421875 391.015625 173.525390625 391.015625 173.525390625 c 2
 388.557617188 169.751953125 387.125976562 165.247070312 387.125976562 160.41015625 c 0
 387.125976562 147.130859375 397.892578125 136.325195312 411.173828125 136.325195312 c 0
 411.188476562 136.350585938 643.12109375 136.325195312 643.12109375 136.325195312 c 2
 656.40234375 136.325195312 667.18359375 147.106445312 667.18359375 160.385742188 c 0
 667.18359375 166.126953125 665.16015625 171.416015625 661.80078125 175.555664062 c 1
 661.80859375 175.5390625 265.739257812 663.234375 265.739257812 663.234375 c 2
 254.538085938 677.02734375 247.823242188 694.60546875 247.823242188 713.7421875 c 0
 247.823242188 728.405232502 251.763396824 742.160280376 258.642578125 754 c 1
 398.984991299 812.814293913 306 688 428.271484375 674 c 1
EndSplineSet
EndChar

StartChar: aacute
Encoding: 225 225 24
Width: 1016
Flags: HW
LayerCount: 2
Fore
SplineSet
819 784.689453125 m 1
 807.802114339 790.63252285 795.031922185 794 781.481445312 794 c 2
 781.02792874 794.112543976 328.02734375 793.946289062 328 794 c 0
 283.733398438 794 247.823242188 758.008789062 247.823242188 713.7421875 c 0
 247.823242188 694.60546875 254.538085938 677.02734375 265.739257812 663.234375 c 2
 265.739257812 663.234375 661.80859375 175.5390625 661.80078125 175.555664062 c 1
 665.16015625 171.416015625 667.18359375 166.126953125 667.18359375 160.385742188 c 0
 667.18359375 147.106445312 656.40234375 136.325195312 643.12109375 136.325195312 c 2
 643.12109375 136.325195312 411.188476562 136.350585938 411.173828125 136.325195312 c 0
 397.892578125 136.325195312 387.125976562 147.130859375 387.125976562 160.41015625 c 0
 387.125976562 165.247070312 388.557617188 169.751953125 391.015625 173.525390625 c 2
 391.015625 173.525390625 484.344726562 316.732421875 484.338867188 316.69140625 c 1
 486.796875 320.466796875 488.234375 325.01171875 488.234375 329.84765625 c 0
 488.234375 335.588867188 486.21875 340.861328125 482.859375 345.000976562 c 2
 482.859375 345.000976562 440.392578125 397.325195312 440.370117188 397.31640625 c 0
 435.958007812 402.751953125 429.24609375 406.234375 421.70703125 406.234375 c 0
 413.264648438 406.234375 405.830078125 401.875976562 401.53515625 395.2890625 c 2
 401.53515625 395.2890625 240.3203125 147.95703125 240.370117188 148.040039062 c 1
 232.170898438 135.461914062 227.35546875 120.36328125 227.35546875 104.2421875 c 0
 227.35546875 59.9755859375 263.29296875 24.0380859375 307.55859375 24.0380859375 c 2
 307.55859375 24.0380859375 761.015625 24.0927734375 761.04296875 24.0380859375 c 0
 805.309570312 24.0380859375 841.219726562 60.0302734375 841.219726562 104.295898438 c 0
 841.219726562 123.432617188 834.502929688 141.01171875 823.301757812 154.8046875 c 2
 823.301757812 154.8046875 427.234375 642.5 427.2421875 642.485351562 c 1
 423.880859375 646.623046875 421.859375 651.912109375 421.859375 657.653320312 c 0
 421.859375 670.932617188 432.640625 681.713867188 445.919921875 681.713867188 c 2
 445.919921875 681.713867188 677.841568075 681.711957316 677.869140625 681.713867188 c 0
 682 682 686.438803155 680.51429111 690 678.423828125 c 1
 733.604492188 716.126953125 818.122070312 662.549804688 819 784.689453125 c 1
EndSplineSet
EndChar

StartChar: agrave
Encoding: 224 224 25
Width: 1016
Flags: HW
LayerCount: 2
Fore
SplineSet
632 794.034179688 m 1
 499.882391941 794.017285314 328.037122943 794 328 794 c 0
 283.733398438 794 247.823242188 758.008789062 247.823242188 713.7421875 c 0
 247.823242188 694.60546875 254.538085938 677.02734375 265.739257812 663.234375 c 2
 265.739257812 663.234375 661.80859375 175.5390625 661.80078125 175.555664062 c 1
 665.16015625 171.416015625 667.18359375 166.126953125 667.18359375 160.385742188 c 0
 667.18359375 147.106445312 656.40234375 136.325195312 643.12109375 136.325195312 c 2
 643.12109375 136.325195312 411.188476562 136.350585938 411.173828125 136.325195312 c 0
 397.892578125 136.325195312 387.125976562 147.130859375 387.125976562 160.41015625 c 0
 387.125976562 165.247070312 388.557617188 169.751953125 391.015625 173.525390625 c 2
 391.015625 173.525390625 484.344726562 316.732421875 484.338867188 316.69140625 c 1
 486.796875 320.466796875 488.234375 325.01171875 488.234375 329.84765625 c 0
 488.234375 335.588867188 486.21875 340.861328125 482.859375 345.000976562 c 2
 482.859375 345.000976562 440.392578125 397.325195312 440.370117188 397.31640625 c 0
 435.958007812 402.751953125 429.24609375 406.234375 421.70703125 406.234375 c 0
 413.264648438 406.234375 405.830078125 401.875976562 401.53515625 395.2890625 c 2
 401.53515625 395.2890625 240.3203125 147.95703125 240.370117188 148.040039062 c 1
 232.170898438 135.461914062 227.35546875 120.36328125 227.35546875 104.2421875 c 0
 227.35546875 59.9755859375 263.29296875 24.0380859375 307.55859375 24.0380859375 c 2
 307.55859375 24.0380859375 761.015625 24.0927734375 761.04296875 24.0380859375 c 0
 805.309570312 24.0380859375 841.219726562 60.0302734375 841.219726562 104.295898438 c 0
 841.219726562 123.432617188 834.502929688 141.01171875 823.301757812 154.8046875 c 2
 823.301757812 154.8046875 427.234375 642.5 427.2421875 642.485351562 c 1
 423.880859375 646.623046875 421.859375 651.912109375 421.859375 657.653320312 c 0
 421.859375 670.932617188 432.999998449 681.713937252 445.919921875 681.713867188 c 2
 445.919921875 681.713867188 557.629944591 681.712947257 626 681.712890625 c 1
 643.750976562 718.237304688 698 752 632 794.034179688 c 1
EndSplineSet
EndChar

StartChar: germandbls
Encoding: 223 223 26
Width: 1016
Flags: HW
LayerCount: 2
Fore
SplineSet
504 681.713867188 m 1
 470.669707646 681.713663374 445.919921875 681.713867188 445.919921875 681.713867188 c 2
 433 681.713867188 421.859375 670.932617188 421.859375 657.653320312 c 0
 421.859375 651.912109375 423.880859375 646.623046875 427.2421875 642.485351562 c 1
 427.234375 642.5 823.301757812 154.8046875 823.301757812 154.8046875 c 2
 834.502929688 141.01171875 841.219726562 123.432617188 841.219726562 104.295898438 c 0
 841.219726562 60.0302734375 805.309570312 24.0380859375 761.04296875 24.0380859375 c 0
 761.015625 24.0927734375 307.55859375 24.0380859375 307.55859375 24.0380859375 c 2
 263.29296875 24.0380859375 227.35546875 59.9755859375 227.35546875 104.2421875 c 0
 227.35546875 120.36328125 232.170898438 135.461914062 240.370117188 148.040039062 c 1
 240.3203125 147.95703125 401.53515625 395.2890625 401.53515625 395.2890625 c 2
 405.830078125 401.875976562 413.264648438 406.234375 421.70703125 406.234375 c 0
 429.24609375 406.234375 435.958007812 402.751953125 440.370117188 397.31640625 c 0
 440.392578125 397.325195312 482.859375 345.000976562 482.859375 345.000976562 c 2
 486.21875 340.861328125 488.234375 335.588867188 488.234375 329.84765625 c 0
 488.234375 325.01171875 486.796875 320.466796875 484.338867188 316.69140625 c 1
 484.344726562 316.732421875 391.015625 173.525390625 391.015625 173.525390625 c 2
 388.557617188 169.751953125 387.125976562 165.247070312 387.125976562 160.41015625 c 0
 387.125976562 147.130859375 397.892578125 136.325195312 411.173828125 136.325195312 c 0
 411.188476562 136.350585938 643.12109375 136.325195312 643.12109375 136.325195312 c 2
 656.40234375 136.325195312 667.18359375 147.106445312 667.18359375 160.385742188 c 0
 667.18359375 166.126953125 665.16015625 171.416015625 661.80078125 175.555664062 c 1
 661.80859375 175.5390625 265.739257812 663.234375 265.739257812 663.234375 c 2
 254.538085938 677.02734375 247.823242188 694.60546875 247.823242188 713.7421875 c 0
 247.823242188 758.008789062 283.733398438 794 328 794 c 0
 328.023036572 794 394.205949111 794.006656228 476 794.015625 c 1
 581.021484375 756.015625 516 718 504 681.713867188 c 1
EndSplineSet
EndChar

StartChar: atilde
Encoding: 227 227 27
Width: 1016
Flags: HW
LayerCount: 2
Fore
SplineSet
754.806640625 526 m 1
 799.011427686 593.816258013 848.70050501 670.044678179 848.672851562 669.998046875 c 1
 856.872070312 682.577148438 861.6875 697.67578125 861.6875 713.796875 c 0
 861.6875 758.0625 825.748046875 794 781.481445312 794 c 2
 781.481445312 794 328.02734375 793.946289062 328 794 c 0
 283.733398438 794 247.823242188 758.008789062 247.823242188 713.7421875 c 0
 247.823242188 694.60546875 254.538085938 677.02734375 265.739257812 663.234375 c 2
 265.739257812 663.234375 661.80859375 175.5390625 661.80078125 175.555664062 c 1
 665.16015625 171.416015625 667.18359375 166.126953125 667.18359375 160.385742188 c 0
 667.18359375 147.106445312 656.40234375 136.325195312 643.12109375 136.325195312 c 2
 643.12109375 136.325195312 411.188476562 136.350585938 411.173828125 136.325195312 c 0
 397.892578125 136.325195312 387.125976562 147.130859375 387.125976562 160.41015625 c 0
 387.125976562 165.247070312 388.557617188 169.751953125 391.015625 173.525390625 c 2
 391.015625 173.525390625 484.344726562 316.732421875 484.338867188 316.69140625 c 1
 486.796875 320.466796875 488.234375 325.01171875 488.234375 329.84765625 c 0
 488.234375 335.588867188 486.21875 340.861328125 482.859375 345.000976562 c 2
 482.859375 345.000976562 440.392578125 397.325195312 440.370117188 397.31640625 c 0
 435.958007812 402.751953125 429.24609375 406.234375 421.70703125 406.234375 c 0
 413.264648438 406.234375 405.830078125 401.875976562 401.53515625 395.2890625 c 2
 401.53515625 395.2890625 240.3203125 147.95703125 240.370117188 148.040039062 c 1
 232.170898438 135.461914062 227.35546875 120.36328125 227.35546875 104.2421875 c 0
 227.35546875 59.9755859375 263.29296875 24.0380859375 307.55859375 24.0380859375 c 2
 307.55859375 24.0380859375 761.015625 24.0927734375 761.04296875 24.0380859375 c 0
 805.309570312 24.0380859375 841.219726562 60.0302734375 841.219726562 104.295898438 c 0
 841.219726562 123.432617188 834.502929688 141.01171875 823.301757812 154.8046875 c 2
 823.301757812 154.8046875 427.234375 642.5 427.2421875 642.485351562 c 1
 423.880859375 646.623046875 421.859375 651.912109375 421.859375 657.653320312 c 0
 421.859375 670.932617188 432.640625 681.713867188 445.919921875 681.713867188 c 2
 445.919921875 681.713867188 677.854492188 681.690429688 677.869140625 681.713867188 c 0
 691.1484375 681.713867188 701.915039062 670.907226562 701.915039062 657.627929688 c 0
 701.915039062 652.791992188 700.208779945 647.863936758 698.025390625 644.513671875 c 2
 698.025390625 644.513671875 687.201107084 627.904212171 672.92578125 606 c 1
 718 608 684.724609375 492.653320312 754.806640625 526 c 1
EndSplineSet
EndChar

StartChar: acircumflex
Encoding: 226 226 28
Width: 1016
Flags: HW
LayerCount: 2
Fore
SplineSet
860.12109375 698 m 1
 861.147391643 703.113454308 861.6875 708.397824008 861.6875 713.796875 c 0
 861.6875 758.0625 825.748046875 794 781.481445312 794 c 2
 781.481445312 794 328.02734375 793.946289062 328 794 c 0
 283.733398438 794 247.823242188 758.008789062 247.823242188 713.7421875 c 0
 247.823242188 694.60546875 254.538085938 677.02734375 265.739257812 663.234375 c 2
 265.739257812 663.234375 661.80859375 175.5390625 661.80078125 175.555664062 c 1
 665.16015625 171.416015625 667.18359375 166.126953125 667.18359375 160.385742188 c 0
 667.18359375 147.106445312 656.40234375 136.325195312 643.12109375 136.325195312 c 2
 643.12109375 136.325195312 411.188476562 136.350585938 411.173828125 136.325195312 c 0
 397.892578125 136.325195312 387.125976562 147.130859375 387.125976562 160.41015625 c 0
 387.125976562 165.247070312 388.557617188 169.751953125 391.015625 173.525390625 c 2
 391.015625 173.525390625 484.344726562 316.732421875 484.338867188 316.69140625 c 1
 486.796875 320.466796875 488.234375 325.01171875 488.234375 329.84765625 c 0
 488.234375 335.588867188 486.21875 340.861328125 482.859375 345.000976562 c 2
 482.859375 345.000976562 440.392578125 397.325195312 440.370117188 397.31640625 c 0
 435.958007812 402.751953125 429.24609375 406.234375 421.70703125 406.234375 c 0
 413.264648438 406.234375 405.830078125 401.875976562 401.53515625 395.2890625 c 2
 401.53515625 395.2890625 240.3203125 147.95703125 240.370117188 148.040039062 c 1
 232.170898438 135.461914062 227.35546875 120.36328125 227.35546875 104.2421875 c 0
 227.35546875 59.9755859375 263.29296875 24.0380859375 307.55859375 24.0380859375 c 2
 307.55859375 24.0380859375 761.015625 24.0927734375 761.04296875 24.0380859375 c 0
 805.309570312 24.0380859375 841.219726562 60.0302734375 841.219726562 104.295898438 c 0
 841.219726562 123.432617188 834.502929688 141.01171875 823.301757812 154.8046875 c 2
 823.301757812 154.8046875 427.234375 642.5 427.2421875 642.485351562 c 1
 423.880859375 646.623046875 421.859375 651.912109375 421.859375 657.653320312 c 0
 421.859375 670.932617188 432.640625 681.713867188 445.919921875 681.713867188 c 2
 445.919921875 681.713867188 677.842096277 681.719567744 677.869140625 681.713867188 c 0
 686 680 701.915039062 670.907226562 701.915039062 657.627929688 c 1
 754.7109375 678.413085938 779.197265625 514.65625 860.12109375 698 c 1
EndSplineSet
EndChar

StartChar: L
Encoding: 76 76 29
Width: 1066
Flags: HW
LayerCount: 2
Fore
SplineSet
555.110351562 658.610351562 m 1
 429.350585938 871.875 82.234375 828.725585938 82.234375 566.94921875 c 0
 82.234375 291.512695312 503.475585938 -76.296875 530.12109375 -99.29296875 c 0
 544.485351562 -111.689453125 565.754882812 -111.689453125 580.119140625 -99.29296875 c 0
 606.911132812 -76.17578125 1028 291.595703125 1028 567 c 0
 1028 588.390625 1021.97070312 793.846679688 790.209960938 793.846679688 c 0
 689.916015625 793.846679688 602.697265625 739.342773438 555.110351562 658.610351562 c 1
EndSplineSet
EndChar

StartChar: ccedilla
Encoding: 231 231 30
Width: 1016
Flags: HW
LayerCount: 2
Fore
SplineSet
463.01953125 284 m 1
 435.474609375 241.744140625 391.015625 173.525390625 391.015625 173.525390625 c 2
 388.801997342 170.12905196 387.125976562 165.247070312 387.125976562 160.41015625 c 0
 387.125976562 147.130859375 397.892578125 136.325195312 411.173828125 136.325195312 c 0
 411.188476562 136.350585938 643.12109375 136.325195312 643.12109375 136.325195312 c 2
 656.40234375 136.325195312 667.18359375 147.106445312 667.18359375 160.385742188 c 0
 667.18359375 166.126953125 665.16015625 171.416015625 661.80078125 175.555664062 c 1
 661.80859375 175.5390625 265.739257812 663.234375 265.739257812 663.234375 c 2
 254.538085938 677.02734375 247.823242188 694.60546875 247.823242188 713.7421875 c 0
 247.823242188 758.008789062 283.733398438 794 328 794 c 0
 328.02734375 793.946289062 781.481445312 794 781.481445312 794 c 2
 825.748046875 794 861.6875 758.0625 861.6875 713.796875 c 0
 861.6875 697.67578125 856.872070312 682.577148438 848.672851562 669.998046875 c 1
 848.72265625 670.08203125 687.505859375 422.751953125 687.505859375 422.751953125 c 2
 683.212890625 416.162109375 675.778320312 411.8046875 667.3359375 411.8046875 c 0
 659.794921875 411.8046875 653.084960938 415.287109375 648.672851562 420.721679688 c 0
 648.6484375 420.713867188 606.18359375 473.040039062 606.18359375 473.040039062 c 2
 602.822265625 477.177734375 600.80859375 482.450195312 600.80859375 488.19140625 c 0
 600.80859375 493.02734375 602.244140625 497.57421875 604.704101562 501.34765625 c 1
 604.698242188 501.306640625 698.025390625 644.513671875 698.025390625 644.513671875 c 2
 700.485351562 648.287109375 701.915039062 652.791992188 701.915039062 657.627929688 c 0
 701.915039062 670.907226562 691.1484375 681.713867188 677.869140625 681.713867188 c 0
 677.854492188 681.690429688 445.919921875 681.713867188 445.919921875 681.713867188 c 2
 432.640625 681.713867188 421.859375 670.932617188 421.859375 657.653320312 c 0
 421.859375 651.912109375 423.880859375 646.623046875 427.2421875 642.485351562 c 1
 427.234375 642.5 823.301757812 154.8046875 823.301757812 154.8046875 c 2
 834.502929688 141.01171875 841.219726562 123.432617188 841.219726562 104.295898438 c 0
 841.219726562 60.0302734375 805.309570312 24.0380859375 761.04296875 24.0380859375 c 0
 761.015625 24.0927734375 307.55859375 24.0380859375 307.55859375 24.0380859375 c 2
 263.29296875 24.0380859375 227.35546875 59.9755859375 227.35546875 104.2421875 c 0
 227.35546875 120.36328125 232.170898438 135.461914062 240.370117188 148.040039062 c 1
 240.339422088 147.988880563 301.563061114 241.915190885 348.549804688 314 c 1
 356 278 424 328 463.01953125 284 c 1
522.40625 -181.01171875 m 2
 522.40625 -181.01171875 462.639648438 -41.5654296875 462.649414062 -41.583984375 c 1
 461.405273438 -38.677734375 460.705078125 -35.4619140625 460.705078125 -32.1044921875 c 0
 460.705078125 -18.8251953125 471.485351562 -8.04296875 484.764648438 -8.04296875 c 2
 484.764648438 -8.04296875 604.265625 -8.0615234375 604.276367188 -8.04296875 c 0
 617.557617188 -8.04296875 628.326171875 -18.841796875 628.326171875 -32.12109375 c 0
 628.326171875 -35.48046875 627.637695312 -38.677734375 626.391601562 -41.583984375 c 2
 626.391601562 -41.583984375 566.66015625 -181.01171875 566.63671875 -181.01171875 c 0
 562.958984375 -189.59375 554.454101562 -195.61328125 544.532226562 -195.61328125 c 0
 534.610351562 -195.61328125 526.083984375 -189.59375 522.40625 -181.01171875 c 2
EndSplineSet
EndChar

StartChar: egrave
Encoding: 232 232 31
Width: 1016
Flags: HW
LayerCount: 2
Fore
SplineSet
414.787109375 210 m 1
 401.172851562 189.112304688 391.015625 173.525390625 391.015625 173.525390625 c 2
 388.802095891 170.128984733 387.125976562 165.247070312 387.125976562 160.41015625 c 0
 387.125976562 147.130859375 397.892578125 136.325195312 411.173828125 136.325195312 c 0
 411.188476562 136.350585938 643.12109375 136.325195312 643.12109375 136.325195312 c 2
 656.40234375 136.325195312 667.18359375 147.106445312 667.18359375 160.385742188 c 0
 667.18359375 166.126953125 665.16015625 171.416015625 661.80078125 175.555664062 c 1
 661.80859375 175.5390625 265.739257812 663.234375 265.739257812 663.234375 c 2
 254.538085938 677.02734375 247.823242188 694.60546875 247.823242188 713.7421875 c 0
 247.823242188 758.008789062 283.733398438 794 328 794 c 0
 328.02734375 793.946289062 781.481445312 794 781.481445312 794 c 2
 825.748046875 794 861.6875 758.0625 861.6875 713.796875 c 0
 861.6875 697.67578125 856.872070312 682.577148438 848.672851562 669.998046875 c 1
 848.72265625 670.08203125 687.505859375 422.751953125 687.505859375 422.751953125 c 2
 683.212890625 416.162109375 675.778320312 411.8046875 667.3359375 411.8046875 c 0
 659.794921875 411.8046875 653.084960938 415.287109375 648.672851562 420.721679688 c 0
 648.6484375 420.713867188 606.18359375 473.040039062 606.18359375 473.040039062 c 2
 602.822265625 477.177734375 600.80859375 482.450195312 600.80859375 488.19140625 c 0
 600.80859375 493.02734375 602.244140625 497.57421875 604.704101562 501.34765625 c 1
 604.698242188 501.306640625 698.025390625 644.513671875 698.025390625 644.513671875 c 2
 700.485351562 648.287109375 701.915039062 652.791992188 701.915039062 657.627929688 c 0
 701.915039062 670.907226562 691.1484375 681.713867188 677.869140625 681.713867188 c 0
 677.854492188 681.690429688 445.919921875 681.713867188 445.919921875 681.713867188 c 2
 432.640625 681.713867188 421.859375 670.932617188 421.859375 657.653320312 c 0
 421.859375 651.912109375 423.880859375 646.623046875 427.2421875 642.485351562 c 1
 427.234375 642.5 823.301757812 154.8046875 823.301757812 154.8046875 c 2
 834.502929688 141.01171875 841.219726562 123.432617188 841.219726562 104.295898438 c 0
 841.219726562 60.0302734375 805.309570312 24.0380859375 761.04296875 24.0380859375 c 0
 761.015625 24.0927734375 307.55859375 24.0380859375 307.55859375 24.0380859375 c 2
 263.29296875 24.0380859375 227.35546875 59.9755859375 227.35546875 104.2421875 c 0
 227.35546875 120.36328125 232.170898438 135.461914062 240.370117188 148.040039062 c 1
 240.352932156 148.011397342 259.535667557 177.439608752 284.670898438 216 c 1
 312 100 370 209 414.787109375 210 c 1
522.40625 -181.01171875 m 2
 522.40625 -181.01171875 462.639648438 -41.5654296875 462.649414062 -41.583984375 c 1
 461.405273438 -38.677734375 460.705078125 -35.4619140625 460.705078125 -32.1044921875 c 0
 460.705078125 -18.8251953125 471.485351562 -8.04296875 484.764648438 -8.04296875 c 2
 484.764648438 -8.04296875 604.265625 -8.0615234375 604.276367188 -8.04296875 c 0
 617.557617188 -8.04296875 628.326171875 -18.841796875 628.326171875 -32.12109375 c 0
 628.326171875 -35.48046875 627.637695312 -38.677734375 626.391601562 -41.583984375 c 2
 626.391601562 -41.583984375 566.66015625 -181.01171875 566.63671875 -181.01171875 c 0
 562.958984375 -189.59375 554.454101562 -195.61328125 544.532226562 -195.61328125 c 0
 534.610351562 -195.61328125 526.083984375 -189.59375 522.40625 -181.01171875 c 2
EndSplineSet
EndChar

StartChar: eacute
Encoding: 233 233 32
Width: 1016
Flags: HW
LayerCount: 2
Fore
SplineSet
387.125976562 160.41015625 m 1
 387.125976562 147.130859375 397.892578125 136.325195312 411.173828125 136.325195312 c 2
 411.249645543 136.249260897 643.12109375 136.325195312 643.12109375 136.325195312 c 2
 656.40234375 136.325195312 667.18359375 147.106445312 667.18359375 160.385742188 c 0
 667.18359375 166.126953125 665.16015625 171.416015625 661.80078125 175.555664062 c 1
 661.80859375 175.5390625 265.739257812 663.234375 265.739257812 663.234375 c 2
 254.538085938 677.02734375 247.823242188 694.60546875 247.823242188 713.7421875 c 0
 247.823242188 758.008789062 283.733398438 794 328 794 c 0
 328.02734375 793.946289062 781.481445312 794 781.481445312 794 c 2
 825.748046875 794 861.6875 758.0625 861.6875 713.796875 c 0
 861.6875 697.67578125 856.872070312 682.577148438 848.672851562 669.998046875 c 1
 848.72265625 670.08203125 687.505859375 422.751953125 687.505859375 422.751953125 c 2
 683.212890625 416.162109375 675.778320312 411.8046875 667.3359375 411.8046875 c 0
 659.794921875 411.8046875 653.084960938 415.287109375 648.672851562 420.721679688 c 0
 648.6484375 420.713867188 606.18359375 473.040039062 606.18359375 473.040039062 c 2
 602.822265625 477.177734375 600.80859375 482.450195312 600.80859375 488.19140625 c 0
 600.80859375 493.02734375 602.244140625 497.57421875 604.704101562 501.34765625 c 1
 604.698242188 501.306640625 698.025390625 644.513671875 698.025390625 644.513671875 c 2
 700.485351562 648.287109375 701.915039062 652.791992188 701.915039062 657.627929688 c 0
 701.915039062 670.907226562 691.1484375 681.713867188 677.869140625 681.713867188 c 0
 677.854492188 681.690429688 445.919921875 681.713867188 445.919921875 681.713867188 c 2
 432.640625 681.713867188 421.859375 670.932617188 421.859375 657.653320312 c 0
 421.859375 651.912109375 423.880859375 646.623046875 427.2421875 642.485351562 c 1
 427.234375 642.5 823.301757812 154.8046875 823.301757812 154.8046875 c 2
 834.502929688 141.01171875 841.219726562 123.432617188 841.219726562 104.295898438 c 0
 841.219726562 60.0302734375 805.309570312 24.0380859375 761.04296875 24.0380859375 c 0
 761.015625 24.0927734375 307.55859375 24.0380859375 307.55859375 24.0380859375 c 2
 263.29296875 24.0380859375 227.35546875 59.9755859375 227.35546875 104.2421875 c 0
 227.35546875 120.36328125 232.170898438 135.461914062 240.370117188 148.040039062 c 1
 300.341486953 16.3523293662 311.759797629 172.613118636 387.125976562 160.41015625 c 1
522.40625 -181.01171875 m 2
 522.40625 -181.01171875 462.639648438 -41.5654296875 462.649414062 -41.583984375 c 1
 461.405273438 -38.677734375 460.705078125 -35.4619140625 460.705078125 -32.1044921875 c 0
 460.705078125 -18.8251953125 471.485351562 -8.04296875 484.764648438 -8.04296875 c 2
 484.764648438 -8.04296875 604.265625 -8.0615234375 604.276367188 -8.04296875 c 0
 617.557617188 -8.04296875 628.326171875 -18.841796875 628.326171875 -32.12109375 c 0
 628.326171875 -35.48046875 627.637695312 -38.677734375 626.391601562 -41.583984375 c 2
 626.391601562 -41.583984375 566.66015625 -181.01171875 566.63671875 -181.01171875 c 0
 562.958984375 -189.59375 554.454101562 -195.61328125 544.532226562 -195.61328125 c 0
 534.610351562 -195.61328125 526.083984375 -189.59375 522.40625 -181.01171875 c 2
EndSplineSet
EndChar

StartChar: ecircumflex
Encoding: 234 234 33
Width: 1016
Flags: HW
LayerCount: 2
Fore
SplineSet
411.173828125 136.325195312 m 1
 411.249645543 136.249260897 643.12109375 136.325195312 643.12109375 136.325195312 c 2
 656 136.325195312 667.18359375 147.106445312 667.18359375 160.385742188 c 0
 667.18359375 166.126953125 665.16015625 171.416015625 661.80078125 175.555664062 c 1
 661.80859375 175.5390625 265.739257812 663.234375 265.739257812 663.234375 c 2
 254.538085938 677.02734375 247.823242188 694.60546875 247.823242188 713.7421875 c 0
 247.823242188 758.008789062 283.733398438 794 328 794 c 0
 328.02734375 793.946289062 781.481445312 794 781.481445312 794 c 2
 825.748046875 794 861.6875 758.0625 861.6875 713.796875 c 0
 861.6875 697.67578125 856.872070312 682.577148438 848.672851562 669.998046875 c 1
 848.72265625 670.08203125 687.505859375 422.751953125 687.505859375 422.751953125 c 2
 683.212890625 416.162109375 675.778320312 411.8046875 667.3359375 411.8046875 c 0
 659.794921875 411.8046875 653.084960938 415.287109375 648.672851562 420.721679688 c 0
 648.6484375 420.713867188 606.18359375 473.040039062 606.18359375 473.040039062 c 2
 602.822265625 477.177734375 600.80859375 482.450195312 600.80859375 488.19140625 c 0
 600.80859375 493.02734375 602.244140625 497.57421875 604.704101562 501.34765625 c 1
 604.698242188 501.306640625 698.025390625 644.513671875 698.025390625 644.513671875 c 2
 700.485351562 648.287109375 701.915039062 652.791992188 701.915039062 657.627929688 c 0
 701.915039062 670.907226562 691.1484375 681.713867188 677.869140625 681.713867188 c 0
 677.854492188 681.690429688 445.919921875 681.713867188 445.919921875 681.713867188 c 2
 432.640625 681.713867188 421.859375 670.932617188 421.859375 657.653320312 c 0
 421.859375 651.912109375 423.880859375 646.623046875 427.2421875 642.485351562 c 1
 427.234375 642.5 823.301757812 154.8046875 823.301757812 154.8046875 c 2
 834.502929688 141.01171875 841.219726562 123.432617188 841.219726562 104.295898438 c 0
 841.219726562 60.0302734375 805.309570312 24.0380859375 761.04296875 24.0380859375 c 0
 761.015625 24.0927734375 307.798337156 23.7983396119 307.55859375 24.0380859375 c 2
 263.29296875 24.0380859375 227.35546875 59.9755859375 227.35546875 104.2421875 c 1
 399.000348934 -31.6943823769 351 120 411.173828125 136.325195312 c 1
522.40625 -181.01171875 m 2
 522.40625 -181.01171875 462.639648438 -41.5654296875 462.649414062 -41.583984375 c 1
 461.405273438 -38.677734375 460.705078125 -35.4619140625 460.705078125 -32.1044921875 c 0
 460.705078125 -18.8251953125 471.485351562 -8.04296875 484.764648438 -8.04296875 c 2
 484.764648438 -8.04296875 604.265625 -8.0615234375 604.276367188 -8.04296875 c 0
 617.557617188 -8.04296875 628.326171875 -18.841796875 628.326171875 -32.12109375 c 0
 628.326171875 -35.48046875 627.637695312 -38.677734375 626.391601562 -41.583984375 c 2
 626.391601562 -41.583984375 566.66015625 -181.01171875 566.63671875 -181.01171875 c 0
 562.958984375 -189.59375 554.454101562 -195.61328125 544.532226562 -195.61328125 c 0
 534.610351562 -195.61328125 526.083984375 -189.59375 522.40625 -181.01171875 c 2
EndSplineSet
EndChar

StartChar: edieresis
Encoding: 235 235 34
Width: 1016
Flags: HW
LayerCount: 2
Fore
SplineSet
240 84 m 1
 227 38 296 33 296 33 c 1
 276 54 253 61 240 84 c 1
307.55859375 24.0380859375 m 0
 307.798337156 23.7983396119 760.981826266 24.0380859375 761.04296875 24.0380859375 c 0
 805.309570312 24.0380859375 841.219726562 60.0302734375 841.219726562 104.295898438 c 0
 841.219726562 123.432617188 834.502929688 141.01171875 823.301757812 154.8046875 c 2
 823.301757812 154.8046875 427.234375 642.5 427.2421875 642.485351562 c 1
 423.880859375 646.623046875 421.859375 651.912109375 421.859375 657.653320312 c 0
 421.859375 670.932617188 432.640625 681.713867188 445.919921875 681.713867188 c 2
 445.919921875 681.713867188 677.854492188 681.690429688 677.869140625 681.713867188 c 0
 691.1484375 681.713867188 701.915039062 670.907226562 701.915039062 657.627929688 c 0
 701.915039062 652.791992188 700.485351562 648.287109375 698.025390625 644.513671875 c 2
 698.025390625 644.513671875 604.698242188 501.306640625 604.704101562 501.34765625 c 1
 602.244140625 497.57421875 600.80859375 493.02734375 600.80859375 488.19140625 c 0
 600.80859375 482.450195312 602.822265625 477.177734375 606.18359375 473.040039062 c 2
 606.18359375 473.040039062 648.6484375 420.713867188 648.672851562 420.721679688 c 0
 653.084960938 415.287109375 659.794921875 411.8046875 667.3359375 411.8046875 c 0
 675.778320312 411.8046875 683.212890625 416.162109375 687.505859375 422.751953125 c 2
 687.505859375 422.751953125 848.72265625 670.08203125 848.672851562 669.998046875 c 1
 856.872070312 682.577148438 861.6875 697.67578125 861.6875 713.796875 c 0
 861.6875 758.0625 825.748046875 794 781.481445312 794 c 2
 781.481445312 794 328.02734375 793.946289062 328 794 c 0
 283.733398438 794 247.823242188 758.008789062 247.823242188 713.7421875 c 0
 247.823242188 694.60546875 254.538085938 677.02734375 265.739257812 663.234375 c 2
 265.739257812 663.234375 661.80859375 175.5390625 661.80078125 175.555664062 c 1
 665.16015625 171.416015625 667.18359375 166.126953125 667.18359375 160.385742188 c 0
 667.18359375 147.106445312 656 136.325195312 643.12109375 136.325195312 c 2
 643.12109375 136.325195312 411.249645543 136.249260897 411.173828125 136.325195312 c 1
 456 124 507.55859375 29.9853515625 307.55859375 24.0380859375 c 0
522.40625 -181.01171875 m 2
 522.40625 -181.01171875 462.639648438 -41.5654296875 462.649414062 -41.583984375 c 1
 461.405273438 -38.677734375 460.705078125 -35.4619140625 460.705078125 -32.1044921875 c 0
 460.705078125 -18.8251953125 471.485351562 -8.04296875 484.764648438 -8.04296875 c 2
 484.764648438 -8.04296875 604.265625 -8.0615234375 604.276367188 -8.04296875 c 0
 617.557617188 -8.04296875 628.326171875 -18.841796875 628.326171875 -32.12109375 c 0
 628.326171875 -35.48046875 627.637695312 -38.677734375 626.391601562 -41.583984375 c 2
 626.391601562 -41.583984375 566.66015625 -181.01171875 566.63671875 -181.01171875 c 0
 562.958984375 -189.59375 554.454101562 -195.61328125 544.532226562 -195.61328125 c 0
 534.610351562 -195.61328125 526.083984375 -189.59375 522.40625 -181.01171875 c 2
EndSplineSet
EndChar

StartChar: igrave
Encoding: 236 236 35
Width: 1016
Flags: HW
LayerCount: 2
Fore
SplineSet
493 136.3359375 m 1
 559.770587138 136.334320038 643.12109375 136.325195312 643.12109375 136.325195312 c 2
 656.000023204 136.324273737 667.18359375 147.106445312 667.18359375 160.385742188 c 0
 667.18359375 166.126953125 665.16015625 171.416015625 661.80078125 175.555664062 c 1
 661.80859375 175.5390625 265.739257812 663.234375 265.739257812 663.234375 c 2
 254.538085938 677.02734375 247.823242188 694.60546875 247.823242188 713.7421875 c 0
 247.823242188 758.008789062 283.733398438 794 328 794 c 0
 328.02734375 793.946289062 781.481445312 794 781.481445312 794 c 2
 825.748046875 794 861.6875 758.0625 861.6875 713.796875 c 0
 861.6875 697.67578125 856.872070312 682.577148438 848.672851562 669.998046875 c 1
 848.72265625 670.08203125 687.505859375 422.751953125 687.505859375 422.751953125 c 2
 683.212890625 416.162109375 675.778320312 411.8046875 667.3359375 411.8046875 c 0
 659.794921875 411.8046875 653.084960938 415.287109375 648.672851562 420.721679688 c 0
 648.6484375 420.713867188 606.18359375 473.040039062 606.18359375 473.040039062 c 2
 602.822265625 477.177734375 600.80859375 482.450195312 600.80859375 488.19140625 c 0
 600.80859375 493.02734375 602.244140625 497.57421875 604.704101562 501.34765625 c 1
 604.698242188 501.306640625 698.025390625 644.513671875 698.025390625 644.513671875 c 2
 700.485351562 648.287109375 701.915039062 652.791992188 701.915039062 657.627929688 c 0
 701.915039062 670.907226562 691.1484375 681.713867188 677.869140625 681.713867188 c 0
 677.854492188 681.690429688 445.919921875 681.713867188 445.919921875 681.713867188 c 2
 432.640625 681.713867188 421.859375 670.932617188 421.859375 657.653320312 c 0
 421.859375 651.912109375 423.880859375 646.623046875 427.2421875 642.485351562 c 1
 427.234375 642.5 823.301757812 154.8046875 823.301757812 154.8046875 c 2
 834.502929688 141.01171875 841.219726562 123.432617188 841.219726562 104.295898438 c 0
 841.219726562 60.0302734375 805.309570312 24.0380859375 761.04296875 24.0380859375 c 0
 761.01066165 24.0380859375 634.418138082 24.0653415297 515 24.0576171875 c 1
 536 46 598 139 493 136.3359375 c 1
522.40625 -181.01171875 m 2
 522.40625 -181.01171875 462.639648438 -41.5654296875 462.649414062 -41.583984375 c 1
 461.405273438 -38.677734375 460.705078125 -35.4619140625 460.705078125 -32.1044921875 c 0
 460.705078125 -18.8251953125 471.485351562 -8.04296875 484.764648438 -8.04296875 c 2
 484.764648438 -8.04296875 604.265625 -8.0615234375 604.276367188 -8.04296875 c 0
 617.557617188 -8.04296875 628.326171875 -18.841796875 628.326171875 -32.12109375 c 0
 628.326171875 -35.48046875 627.637695312 -38.677734375 626.391601562 -41.583984375 c 2
 626.391601562 -41.583984375 566.66015625 -181.01171875 566.63671875 -181.01171875 c 0
 562.958984375 -189.59375 554.454101562 -195.61328125 544.532226562 -195.61328125 c 0
 534.610351562 -195.61328125 526.083984375 -189.59375 522.40625 -181.01171875 c 2
EndSplineSet
EndChar

StartChar: iacute
Encoding: 237 237 36
Width: 1016
Flags: HW
LayerCount: 2
Fore
SplineSet
594 136.330078125 m 1
 622.711159744 136.327429672 643.12109375 136.325195312 643.12109375 136.325195312 c 2
 656.000032198 136.323915099 667.18359375 147.106445312 667.18359375 160.385742188 c 0
 667.18359375 166.126953125 665.16015625 171.416015625 661.80078125 175.555664062 c 1
 661.80859375 175.5390625 265.739257812 663.234375 265.739257812 663.234375 c 2
 254.538085938 677.02734375 247.823242188 694.60546875 247.823242188 713.7421875 c 0
 247.823242188 758.008789062 283.733398438 794 328 794 c 0
 328.02734375 793.946289062 781.481445312 794 781.481445312 794 c 2
 825.748046875 794 861.6875 758.0625 861.6875 713.796875 c 0
 861.6875 697.67578125 856.872070312 682.577148438 848.672851562 669.998046875 c 1
 848.72265625 670.08203125 687.505859375 422.751953125 687.505859375 422.751953125 c 2
 683.212890625 416.162109375 675.778320312 411.8046875 667.3359375 411.8046875 c 0
 659.794921875 411.8046875 653.084960938 415.287109375 648.672851562 420.721679688 c 0
 648.6484375 420.713867188 606.18359375 473.040039062 606.18359375 473.040039062 c 2
 602.822265625 477.177734375 600.80859375 482.450195312 600.80859375 488.19140625 c 0
 600.80859375 493.02734375 602.244140625 497.57421875 604.704101562 501.34765625 c 1
 604.698242188 501.306640625 698.025390625 644.513671875 698.025390625 644.513671875 c 2
 700.485351562 648.287109375 701.915039062 652.791992188 701.915039062 657.627929688 c 0
 701.915039062 670.907226562 691.1484375 681.713867188 677.869140625 681.713867188 c 0
 677.854492188 681.690429688 445.919921875 681.713867188 445.919921875 681.713867188 c 2
 432.640625 681.713867188 421.859375 670.932617188 421.859375 657.653320312 c 0
 421.859375 651.912109375 423.880859375 646.623046875 427.2421875 642.485351562 c 1
 427.234375 642.5 823.301757812 154.8046875 823.301757812 154.8046875 c 2
 834.502929688 141.01171875 841.219726562 123.432617188 841.219726562 104.295898438 c 0
 841.219726562 60.0302734375 805.309570312 24.0380859375 761.04296875 24.0380859375 c 0
 761.023668485 24.0380859375 715.84527904 24.0617130086 654 24.0625 c 1
 688 108 613 92 594 136.330078125 c 1
522.40625 -181.01171875 m 2
 522.40625 -181.01171875 462.639648438 -41.5654296875 462.649414062 -41.583984375 c 1
 461.405273438 -38.677734375 460.705078125 -35.4619140625 460.705078125 -32.1044921875 c 0
 460.705078125 -18.8251953125 471.485351562 -8.04296875 484.764648438 -8.04296875 c 2
 484.764648438 -8.04296875 604.265625 -8.0615234375 604.276367188 -8.04296875 c 0
 617.557617188 -8.04296875 628.326171875 -18.841796875 628.326171875 -32.12109375 c 0
 628.326171875 -35.48046875 627.637695312 -38.677734375 626.391601562 -41.583984375 c 2
 626.391601562 -41.583984375 566.66015625 -181.01171875 566.63671875 -181.01171875 c 0
 562.958984375 -189.59375 554.454101562 -195.61328125 544.532226562 -195.61328125 c 0
 534.610351562 -195.61328125 526.083984375 -189.59375 522.40625 -181.01171875 c 2
EndSplineSet
EndChar

StartChar: icircumflex
Encoding: 238 238 37
Width: 1016
Flags: HW
LayerCount: 2
Fore
SplineSet
667.18359375 160.385742188 m 1
 667.18359375 166.126953125 665.16015625 171.416015625 661.80078125 175.555664062 c 1
 661.80859375 175.5390625 265.739257812 663.234375 265.739257812 663.234375 c 2
 254.538085938 677.02734375 247.823242188 694.60546875 247.823242188 713.7421875 c 0
 247.823242188 758.008789062 283.733398438 794 328 794 c 0
 328.02734375 793.946289062 781.481445312 794 781.481445312 794 c 2
 825.748046875 794 861.6875 758.0625 861.6875 713.796875 c 0
 861.6875 697.67578125 856.872070312 682.577148438 848.672851562 669.998046875 c 1
 848.72265625 670.08203125 687.505859375 422.751953125 687.505859375 422.751953125 c 2
 683.212890625 416.162109375 675.778320312 411.8046875 667.3359375 411.8046875 c 0
 659.794921875 411.8046875 653.084960938 415.287109375 648.672851562 420.721679688 c 0
 648.6484375 420.713867188 606.18359375 473.040039062 606.18359375 473.040039062 c 2
 602.822265625 477.177734375 600.80859375 482.450195312 600.80859375 488.19140625 c 0
 600.80859375 493.02734375 602.244140625 497.57421875 604.704101562 501.34765625 c 1
 604.698242188 501.306640625 698.025390625 644.513671875 698.025390625 644.513671875 c 2
 700.485351562 648.287109375 701.915039062 652.791992188 701.915039062 657.627929688 c 0
 701.915039062 670.907226562 691.1484375 681.713867188 677.869140625 681.713867188 c 0
 677.854492188 681.690429688 445.919921875 681.713867188 445.919921875 681.713867188 c 2
 432.640625 681.713867188 421.859375 670.932617188 421.859375 657.653320312 c 0
 421.859375 651.912109375 423.880859375 646.623046875 427.2421875 642.485351562 c 1
 427.234375 642.5 823.206485206 155.073250528 823.301757812 154.8046875 c 2
 834.503229117 141.011961925 841.219726562 123.432617188 841.219726562 104.295898438 c 1
 781.11620486 122.071961395 705.547329358 228.481151288 667.18359375 160.385742188 c 1
522.40625 -181.01171875 m 2
 522.40625 -181.01171875 462.639648438 -41.5654296875 462.649414062 -41.583984375 c 1
 461.405273438 -38.677734375 460.705078125 -35.4619140625 460.705078125 -32.1044921875 c 0
 460.705078125 -18.8251953125 471.485351562 -8.04296875 484.764648438 -8.04296875 c 2
 484.764648438 -8.04296875 604.265625 -8.0615234375 604.276367188 -8.04296875 c 0
 617.557617188 -8.04296875 628.326171875 -18.841796875 628.326171875 -32.12109375 c 0
 628.326171875 -35.48046875 627.637695312 -38.677734375 626.391601562 -41.583984375 c 2
 626.391601562 -41.583984375 566.66015625 -181.01171875 566.63671875 -181.01171875 c 0
 562.958984375 -189.59375 554.454101562 -195.61328125 544.532226562 -195.61328125 c 0
 534.610351562 -195.61328125 526.083984375 -189.59375 522.40625 -181.01171875 c 2
EndSplineSet
EndChar

StartChar: idieresis
Encoding: 239 239 38
Width: 1016
Flags: HW
LayerCount: 2
Fore
SplineSet
823.301757812 154.8046875 m 1
 823.301757812 154.8046875 427.234375 642.5 427.2421875 642.485351562 c 1
 423.880859375 646.623046875 421.859375 651.912109375 421.859375 657.653320312 c 0
 421.859375 670.932617188 432.640625 681.713867188 445.919921875 681.713867188 c 2
 445.919921875 681.713867188 677.854492188 681.690429688 677.869140625 681.713867188 c 0
 691.1484375 681.713867188 701.915039062 670.907226562 701.915039062 657.627929688 c 0
 701.915039062 652.791992188 700.485351562 648.287109375 698.025390625 644.513671875 c 2
 698.025390625 644.513671875 604.698242188 501.306640625 604.704101562 501.34765625 c 1
 602.244140625 497.57421875 600.80859375 493.02734375 600.80859375 488.19140625 c 0
 600.80859375 482.450195312 602.822265625 477.177734375 606.18359375 473.040039062 c 2
 606.18359375 473.040039062 648.6484375 420.713867188 648.672851562 420.721679688 c 0
 653.084960938 415.287109375 659.794921875 411.8046875 667.3359375 411.8046875 c 0
 675.778320312 411.8046875 683.212890625 416.162109375 687.505859375 422.751953125 c 2
 687.505859375 422.751953125 848.72265625 670.08203125 848.672851562 669.998046875 c 1
 856.872070312 682.577148438 861.6875 697.67578125 861.6875 713.796875 c 0
 861.6875 758.0625 825.748046875 794 781.481445312 794 c 2
 781.481445312 794 328.02734375 793.946289062 328 794 c 0
 283.733398438 794 247.823242188 758.008789062 247.823242188 713.7421875 c 0
 247.823242188 694.60546875 254.73469214 676.784523358 265.739257812 663.234375 c 2
 265.739257812 663.234375 648.392578125 192.059570312 661.80078125 175.555664062 c 1
 713 172 675 261 823.301757812 154.8046875 c 1
522.40625 -181.01171875 m 2
 522.40625 -181.01171875 462.639648438 -41.5654296875 462.649414062 -41.583984375 c 1
 461.405273438 -38.677734375 460.705078125 -35.4619140625 460.705078125 -32.1044921875 c 0
 460.705078125 -18.8251953125 471.485351562 -8.04296875 484.764648438 -8.04296875 c 2
 484.764648438 -8.04296875 604.265625 -8.0615234375 604.276367188 -8.04296875 c 0
 617.557617188 -8.04296875 628.326171875 -18.841796875 628.326171875 -32.12109375 c 0
 628.326171875 -35.48046875 627.637695312 -38.677734375 626.391601562 -41.583984375 c 2
 626.391601562 -41.583984375 566.66015625 -181.01171875 566.63671875 -181.01171875 c 0
 562.958984375 -189.59375 554.454101562 -195.61328125 544.532226562 -195.61328125 c 0
 534.610351562 -195.61328125 526.083984375 -189.59375 522.40625 -181.01171875 c 2
EndSplineSet
EndChar

StartChar: eth
Encoding: 240 240 39
Width: 1016
Flags: HW
LayerCount: 2
Fore
SplineSet
621.643554688 225 m 1
 520.951640721 348.981612811 265.739257812 663.234375 265.739257812 663.234375 c 2
 254.734718021 676.784555933 247.823242188 694.60546875 247.823242188 713.7421875 c 0
 247.823242188 758.008789062 283.733398438 794 328 794 c 0
 328.02734375 793.946289062 781.481445312 794 781.481445312 794 c 2
 825.748046875 794 861.6875 758.0625 861.6875 713.796875 c 0
 861.6875 697.67578125 856.872070312 682.577148438 848.672851562 669.998046875 c 1
 848.72265625 670.08203125 687.505859375 422.751953125 687.505859375 422.751953125 c 2
 683.212890625 416.162109375 675.778320312 411.8046875 667.3359375 411.8046875 c 0
 659.794921875 411.8046875 653.084960938 415.287109375 648.672851562 420.721679688 c 0
 648.6484375 420.713867188 606.18359375 473.040039062 606.18359375 473.040039062 c 2
 602.822265625 477.177734375 600.80859375 482.450195312 600.80859375 488.19140625 c 0
 600.80859375 493.02734375 602.244140625 497.57421875 604.704101562 501.34765625 c 1
 604.698242188 501.306640625 698.025390625 644.513671875 698.025390625 644.513671875 c 2
 700.485351562 648.287109375 701.915039062 652.791992188 701.915039062 657.627929688 c 0
 701.915039062 670.907226562 691.1484375 681.713867188 677.869140625 681.713867188 c 0
 677.854492188 681.690429688 445.919921875 681.713867188 445.919921875 681.713867188 c 2
 432.640625 681.713867188 421.859375 670.932617188 421.859375 657.653320312 c 0
 421.859375 651.912109375 423.880859375 646.623046875 427.2421875 642.485351562 c 1
 427.236665686 642.495704964 625.092598093 398.867973346 741.119140625 256 c 1
 665 284 597 312 621.643554688 225 c 1
522.40625 -181.01171875 m 2
 522.40625 -181.01171875 462.639648438 -41.5654296875 462.649414062 -41.583984375 c 1
 461.405273438 -38.677734375 460.705078125 -35.4619140625 460.705078125 -32.1044921875 c 0
 460.705078125 -18.8251953125 471.485351562 -8.04296875 484.764648438 -8.04296875 c 2
 484.764648438 -8.04296875 604.265625 -8.0615234375 604.276367188 -8.04296875 c 0
 617.557617188 -8.04296875 628.326171875 -18.841796875 628.326171875 -32.12109375 c 0
 628.326171875 -35.48046875 627.637695312 -38.677734375 626.391601562 -41.583984375 c 2
 626.391601562 -41.583984375 566.66015625 -181.01171875 566.63671875 -181.01171875 c 0
 562.958984375 -189.59375 554.454101562 -195.61328125 544.532226562 -195.61328125 c 0
 534.610351562 -195.61328125 526.083984375 -189.59375 522.40625 -181.01171875 c 2
EndSplineSet
EndChar

StartChar: ntilde
Encoding: 241 241 40
Width: 1016
Flags: HW
LayerCount: 2
Fore
SplineSet
637.166992188 384 m 1
 534.348397601 510.604600894 427.238124704 642.492969305 427.2421875 642.485351562 c 1
 423.880859375 646.623046875 421.859375 651.912109375 421.859375 657.653320312 c 0
 421.859375 670.932617188 432.640625 681.713867188 445.919921875 681.713867188 c 2
 445.919921875 681.713867188 677.854492188 681.690429688 677.869140625 681.713867188 c 0
 691.1484375 681.713867188 701.915039062 670.907226562 701.915039062 657.627929688 c 0
 701.915039062 652.791992188 700.485351562 648.287109375 698.025390625 644.513671875 c 2
 698.025390625 644.513671875 604.698242188 501.306640625 604.704101562 501.34765625 c 1
 602.244140625 497.57421875 600.80859375 493.02734375 600.80859375 488.19140625 c 0
 600.80859375 482.450195312 602.822265625 477.177734375 606.18359375 473.040039062 c 2
 606.18359375 473.040039062 648.6484375 420.713867188 648.672851562 420.721679688 c 0
 653.084960938 415.287109375 659.794921875 411.8046875 667.3359375 411.8046875 c 0
 675.778320312 411.8046875 683.212890625 416.162109375 687.505859375 422.751953125 c 2
 687.505859375 422.751953125 848.72265625 670.08203125 848.672851562 669.998046875 c 1
 856.872070312 682.577148438 861.6875 697.67578125 861.6875 713.796875 c 0
 861.6875 758.0625 825.748046875 794 781.481445312 794 c 2
 781.481445312 794 328.02734375 793.946289062 328 794 c 0
 283.733398438 794 247.823242188 758.008789062 247.823242188 713.7421875 c 0
 247.823242188 694.60546875 254.73474034 676.784574796 265.739257812 663.234375 c 2
 265.739257812 663.234375 413.964729376 480.718686165 529.059570312 339 c 1
 492 448 613 396 637.166992188 384 c 1
522.40625 -181.01171875 m 2
 522.40625 -181.01171875 462.639648438 -41.5654296875 462.649414062 -41.583984375 c 1
 461.405273438 -38.677734375 460.705078125 -35.4619140625 460.705078125 -32.1044921875 c 0
 460.705078125 -18.8251953125 471.485351562 -8.04296875 484.764648438 -8.04296875 c 2
 484.764648438 -8.04296875 604.265625 -8.0615234375 604.276367188 -8.04296875 c 0
 617.557617188 -8.04296875 628.326171875 -18.841796875 628.326171875 -32.12109375 c 0
 628.326171875 -35.48046875 627.637695312 -38.677734375 626.391601562 -41.583984375 c 2
 626.391601562 -41.583984375 566.66015625 -181.01171875 566.63671875 -181.01171875 c 0
 562.958984375 -189.59375 554.454101562 -195.61328125 544.532226562 -195.61328125 c 0
 534.610351562 -195.61328125 526.083984375 -189.59375 522.40625 -181.01171875 c 2
EndSplineSet
EndChar

StartChar: ograve
Encoding: 242 242 41
Width: 1016
Flags: HW
LayerCount: 2
Fore
SplineSet
467.336914062 415 m 1
 367.147170915 538.36693543 265.739257812 663.234375 265.739257812 663.234375 c 2
 254.734766609 676.784596996 247.823242188 694.60546875 247.823242188 713.7421875 c 0
 247.823242188 758.008789062 283.733398438 794 328 794 c 0
 328.02734375 793.946289062 781.481445312 794 781.481445312 794 c 2
 825.748046875 794 861.6875 758.0625 861.6875 713.796875 c 0
 861.6875 697.67578125 856.872070312 682.577148438 848.672851562 669.998046875 c 1
 848.72265625 670.08203125 687.505859375 422.751953125 687.505859375 422.751953125 c 2
 683.212890625 416.162109375 675.778320312 411.8046875 667.3359375 411.8046875 c 0
 659.794921875 411.8046875 653.084960938 415.287109375 648.672851562 420.721679688 c 0
 648.6484375 420.713867188 606.18359375 473.040039062 606.18359375 473.040039062 c 2
 602.822265625 477.177734375 600.80859375 482.450195312 600.80859375 488.19140625 c 0
 600.80859375 493.02734375 602.244140625 497.57421875 604.704101562 501.34765625 c 1
 604.698242188 501.306640625 698.025390625 644.513671875 698.025390625 644.513671875 c 2
 700.485351562 648.287109375 701.915039062 652.791992188 701.915039062 657.627929688 c 0
 701.915039062 670.907226562 691.1484375 681.713867188 677.869140625 681.713867188 c 0
 677.854492188 681.690429688 445.919921875 681.713867188 445.919921875 681.713867188 c 2
 432.640625 681.713867188 421.859375 670.932617188 421.859375 657.653320312 c 0
 421.859375 651.912109375 423.880859375 646.623046875 427.2421875 642.485351562 c 1
 427.239042185 642.491249028 491.434570312 563.4453125 568.13671875 469 c 1
 534.028483384 495.088978882 414.628461399 485.005264944 467.336914062 415 c 1
522.40625 -181.01171875 m 2
 522.40625 -181.01171875 462.639648438 -41.5654296875 462.649414062 -41.583984375 c 1
 461.405273438 -38.677734375 460.705078125 -35.4619140625 460.705078125 -32.1044921875 c 0
 460.705078125 -18.8251953125 471.485351562 -8.04296875 484.764648438 -8.04296875 c 2
 484.764648438 -8.04296875 604.265625 -8.0615234375 604.276367188 -8.04296875 c 0
 617.557617188 -8.04296875 628.326171875 -18.841796875 628.326171875 -32.12109375 c 0
 628.326171875 -35.48046875 627.637695312 -38.677734375 626.391601562 -41.583984375 c 2
 626.391601562 -41.583984375 566.66015625 -181.01171875 566.63671875 -181.01171875 c 0
 562.958984375 -189.59375 554.454101562 -195.61328125 544.532226562 -195.61328125 c 0
 534.610351562 -195.61328125 526.083984375 -189.59375 522.40625 -181.01171875 c 2
EndSplineSet
EndChar

StartChar: oacute
Encoding: 243 243 42
Width: 1016
Flags: HW
LayerCount: 2
Fore
SplineSet
421.858398438 471 m 1
 338.622052402 573.491004186 265.739257812 663.234375 265.739257812 663.234375 c 2
 254.734743397 676.784577379 247.823242188 694.60546875 247.823242188 713.7421875 c 0
 247.823242188 758.008789062 283.733398438 794 328 794 c 0
 328.02734375 793.946289062 781.481445312 794 781.481445312 794 c 2
 825.748046875 794 861.6875 758.0625 861.6875 713.796875 c 0
 861.6875 697.67578125 856.872070312 682.577148438 848.672851562 669.998046875 c 1
 848.72265625 670.08203125 687.505859375 422.751953125 687.505859375 422.751953125 c 2
 683.212890625 416.162109375 675.778320312 411.8046875 667.3359375 411.8046875 c 0
 659.794921875 411.8046875 653.084960938 415.287109375 648.672851562 420.721679688 c 0
 648.6484375 420.713867188 606.18359375 473.040039062 606.18359375 473.040039062 c 2
 602.822265625 477.177734375 600.80859375 482.450195312 600.80859375 488.19140625 c 0
 600.80859375 493.02734375 602.244140625 497.57421875 604.704101562 501.34765625 c 1
 604.698242188 501.306640625 698.025390625 644.513671875 698.025390625 644.513671875 c 2
 700.485351562 648.287109375 701.915039062 652.791992188 701.915039062 657.627929688 c 0
 701.915039062 670.907226562 691.1484375 681.713867188 677.869140625 681.713867188 c 0
 677.854492188 681.690429688 445.919921875 681.713867188 445.919921875 681.713867188 c 2
 432.640625 681.713867188 421.859375 670.932617188 421.859375 657.653320312 c 0
 421.859375 651.912109375 423.880859375 646.623046875 427.2421875 642.485351562 c 1
 427.239667456 642.490076644 468.686523438 591.749023438 524.28125 523 c 1
 492 524 396 587 421.858398438 471 c 1
522.40625 -181.01171875 m 2
 522.40625 -181.01171875 462.639648438 -41.5654296875 462.649414062 -41.583984375 c 1
 461.405273438 -38.677734375 460.705078125 -35.4619140625 460.705078125 -32.1044921875 c 0
 460.705078125 -18.8251953125 471.485351562 -8.04296875 484.764648438 -8.04296875 c 2
 484.764648438 -8.04296875 604.265625 -8.0615234375 604.276367188 -8.04296875 c 0
 617.557617188 -8.04296875 628.326171875 -18.841796875 628.326171875 -32.12109375 c 0
 628.326171875 -35.48046875 627.637695312 -38.677734375 626.391601562 -41.583984375 c 2
 626.391601562 -41.583984375 566.66015625 -181.01171875 566.63671875 -181.01171875 c 0
 562.958984375 -189.59375 554.454101562 -195.61328125 544.532226562 -195.61328125 c 0
 534.610351562 -195.61328125 526.083984375 -189.59375 522.40625 -181.01171875 c 2
EndSplineSet
EndChar

StartChar: ocircumflex
Encoding: 244 244 43
Width: 1016
Flags: HW
LayerCount: 2
Fore
SplineSet
506.415039062 545 m 1
 460.155273438 602.302734375 427.239944792 642.48955664 427.2421875 642.485351562 c 1
 423.880859375 646.623046875 421.859375 651.912109375 421.859375 657.653320312 c 0
 421.859375 670.932617188 432.640625 681.713867188 445.919921875 681.713867188 c 2
 445.919921875 681.713867188 677.854492188 681.690429688 677.869140625 681.713867188 c 0
 691.1484375 681.713867188 701.915039062 670.907226562 701.915039062 657.627929688 c 0
 701.915039062 652.791992188 700.485351562 648.287109375 698.025390625 644.513671875 c 2
 698.025390625 644.513671875 604.698242188 501.306640625 604.704101562 501.34765625 c 1
 602.244140625 497.57421875 600.80859375 493.02734375 600.80859375 488.19140625 c 0
 600.80859375 482.450195312 602.822265625 477.177734375 606.18359375 473.040039062 c 2
 606.18359375 473.040039062 648.6484375 420.713867188 648.672851562 420.721679688 c 0
 653.084960938 415.287109375 659.794921875 411.8046875 667.3359375 411.8046875 c 0
 675.778320312 411.8046875 683.212890625 416.162109375 687.505859375 422.751953125 c 2
 687.505859375 422.751953125 848.72265625 670.08203125 848.672851562 669.998046875 c 1
 856.872070312 682.577148438 861.6875 697.67578125 861.6875 713.796875 c 0
 861.6875 758.0625 825.748046875 794 781.481445312 794 c 2
 781.481445312 794 328.02734375 793.946289062 328 794 c 0
 283.733398438 794 247.823242188 758.008789062 247.823242188 713.7421875 c 0
 247.823242188 694.60546875 254.734801496 676.78462648 265.739257812 663.234375 c 2
 265.739257812 663.234375 305.651656014 614.088713502 360.135742188 547 c 1
 348.734498712 667.967642086 450.038245973 568.999987526 506.415039062 545 c 1
522.40625 -181.01171875 m 2
 522.40625 -181.01171875 462.639648438 -41.5654296875 462.649414062 -41.583984375 c 1
 461.405273438 -38.677734375 460.705078125 -35.4619140625 460.705078125 -32.1044921875 c 0
 460.705078125 -18.8251953125 471.485351562 -8.04296875 484.764648438 -8.04296875 c 2
 484.764648438 -8.04296875 604.265625 -8.0615234375 604.276367188 -8.04296875 c 0
 617.557617188 -8.04296875 628.326171875 -18.841796875 628.326171875 -32.12109375 c 0
 628.326171875 -35.48046875 627.637695312 -38.677734375 626.391601562 -41.583984375 c 2
 626.391601562 -41.583984375 566.66015625 -181.01171875 566.63671875 -181.01171875 c 0
 562.958984375 -189.59375 554.454101562 -195.61328125 544.532226562 -195.61328125 c 0
 534.610351562 -195.61328125 526.083984375 -189.59375 522.40625 -181.01171875 c 2
EndSplineSet
EndChar

StartChar: otilde
Encoding: 245 245 44
Width: 1016
Flags: HW
LayerCount: 2
Fore
SplineSet
291.083984375 632 m 1
 257.576171875 673.260742188 265.739257812 663.234375 265.739257812 663.234375 c 2
 254.747616249 676.780271958 247.823242188 694.60546875 247.823242188 713.7421875 c 0
 247.823242188 758.008789062 283.733398438 794 328 794 c 0
 328.02734375 793.946289062 781.481445312 794 781.481445312 794 c 2
 825.748046875 794 861.6875 758.0625 861.6875 713.796875 c 0
 861.6875 697.67578125 856.872070312 682.577148438 848.672851562 669.998046875 c 1
 848.72265625 670.08203125 687.505859375 422.751953125 687.505859375 422.751953125 c 2
 683.212890625 416.162109375 675.778320312 411.8046875 667.3359375 411.8046875 c 0
 659.794921875 411.8046875 653.084960938 415.287109375 648.672851562 420.721679688 c 0
 648.6484375 420.713867188 606.18359375 473.040039062 606.18359375 473.040039062 c 2
 602.822265625 477.177734375 600.80859375 482.450195312 600.80859375 488.19140625 c 0
 600.80859375 493.02734375 602.244140625 497.57421875 604.704101562 501.34765625 c 1
 604.698242188 501.306640625 698.025390625 644.513671875 698.025390625 644.513671875 c 2
 700.485351562 648.287109375 701.915039062 652.791992188 701.915039062 657.627929688 c 0
 701.915039062 670.907226562 691.1484375 681.713867188 677.869140625 681.713867188 c 0
 677.854492188 681.690429688 445.919921875 681.713867188 445.919921875 681.713867188 c 2
 432.640625 681.713867188 421.859375 670.932617188 421.859375 657.653320312 c 0
 421.859375 651.912109375 423.880859375 646.623046875 427.2421875 642.485351562 c 1
 427.240821936 642.487911994 419.84765625 651.58984375 439.817382812 627 c 1
 398 620 327.5724383 737.111193479 291.083984375 632 c 1
522.40625 -181.01171875 m 2
 522.40625 -181.01171875 462.639648438 -41.5654296875 462.649414062 -41.583984375 c 1
 461.405273438 -38.677734375 460.705078125 -35.4619140625 460.705078125 -32.1044921875 c 0
 460.705078125 -18.8251953125 471.485351562 -8.04296875 484.764648438 -8.04296875 c 2
 484.764648438 -8.04296875 604.265625 -8.0615234375 604.276367188 -8.04296875 c 0
 617.557617188 -8.04296875 628.326171875 -18.841796875 628.326171875 -32.12109375 c 0
 628.326171875 -35.48046875 627.637695312 -38.677734375 626.391601562 -41.583984375 c 2
 626.391601562 -41.583984375 566.66015625 -181.01171875 566.63671875 -181.01171875 c 0
 562.958984375 -189.59375 554.454101562 -195.61328125 544.532226562 -195.61328125 c 0
 534.610351562 -195.61328125 526.083984375 -189.59375 522.40625 -181.01171875 c 2
EndSplineSet
EndChar

StartChar: odieresis
Encoding: 246 246 45
Width: 1016
Flags: HW
LayerCount: 2
Fore
SplineSet
421.858398438 657.653320312 m 1
 421.859375 670.932617188 432.640625 681.713867188 445.919921875 681.713867188 c 2
 446.103028968 681.89696685 677.854492188 681.690429688 677.869140625 681.713867188 c 0
 691.1484375 681.713867188 701.915039062 670.907226562 701.915039062 657.627929688 c 0
 701.915039062 652.791992188 700.485351562 648.287109375 698.025390625 644.513671875 c 2
 698.025390625 644.513671875 604.698242188 501.306640625 604.704101562 501.34765625 c 1
 602.244140625 497.57421875 600.80859375 493.02734375 600.80859375 488.19140625 c 0
 600.80859375 482.450195312 602.822265625 477.177734375 606.18359375 473.040039062 c 2
 606.18359375 473.040039062 648.6484375 420.713867188 648.672851562 420.721679688 c 0
 653.084960938 415.287109375 659.794921875 411.8046875 667.3359375 411.8046875 c 0
 675.778320312 411.8046875 683.212890625 416.162109375 687.505859375 422.751953125 c 2
 687.505859375 422.751953125 848.72265625 670.08203125 848.672851562 669.998046875 c 1
 856.872070312 682.577148438 861.6875 697.67578125 861.6875 713.796875 c 0
 861.6875 758.0625 825.748046875 794 781.481445312 794 c 2
 781.481445312 794 328.02734375 793.946289062 328 794 c 0
 283.733398438 794 247.823242188 758.008789062 247.823242188 713.7421875 c 0
 247.823242188 703.235471878 249.847355953 693.198576729 253.526367188 684 c 1
 341 762 362 670 421.858398438 657.653320312 c 1
522.40625 -181.01171875 m 2
 522.40625 -181.01171875 462.639648438 -41.5654296875 462.649414062 -41.583984375 c 1
 461.405273438 -38.677734375 460.705078125 -35.4619140625 460.705078125 -32.1044921875 c 0
 460.705078125 -18.8251953125 471.485351562 -8.04296875 484.764648438 -8.04296875 c 2
 484.764648438 -8.04296875 604.265625 -8.0615234375 604.276367188 -8.04296875 c 0
 617.557617188 -8.04296875 628.326171875 -18.841796875 628.326171875 -32.12109375 c 0
 628.326171875 -35.48046875 627.637695312 -38.677734375 626.391601562 -41.583984375 c 2
 626.391601562 -41.583984375 566.66015625 -181.01171875 566.63671875 -181.01171875 c 0
 562.958984375 -189.59375 554.454101562 -195.61328125 544.532226562 -195.61328125 c 0
 534.610351562 -195.61328125 526.083984375 -189.59375 522.40625 -181.01171875 c 2
EndSplineSet
EndChar

StartChar: divide
Encoding: 247 247 46
Width: 1016
Flags: HW
LayerCount: 2
Fore
SplineSet
258.642578125 754 m 1
 272.530176681 777.903483192 298.396442372 794 328 794 c 2
 781.481445312 794 l 2
 825.748046875 794 861.6875 758.0625 861.6875 713.796875 c 0
 861.6875 697.67578125 856.872070312 682.577148438 848.672851562 669.998046875 c 1
 848.72265625 670.08203125 687.505859375 422.751953125 687.505859375 422.751953125 c 2
 683.212890625 416.162109375 675.778320312 411.8046875 667.3359375 411.8046875 c 0
 659.794921875 411.8046875 653.084960938 415.287109375 648.672851562 420.721679688 c 0
 648.6484375 420.713867188 606.18359375 473.040039062 606.18359375 473.040039062 c 2
 602.822265625 477.177734375 600.80859375 482.450195312 600.80859375 488.19140625 c 0
 600.80859375 493.02734375 602.244140625 497.57421875 604.704101562 501.34765625 c 1
 604.698242188 501.306640625 698.025390625 644.513671875 698.025390625 644.513671875 c 2
 700.485351562 648.287109375 701.915039062 652.791992188 701.915039062 657.627929688 c 0
 701.915039062 670.907226562 691.1484375 681.713867188 677.869140625 681.713867188 c 0
 677.854492188 681.690429688 446.092159513 681.789149675 445.919921875 681.713867188 c 2
 438.949404811 681.713867188 432.667191935 678.743234567 428.271484375 674 c 1
 306 687 401 812 258.642578125 754 c 1
522.40625 -181.01171875 m 2
 522.40625 -181.01171875 462.639648438 -41.5654296875 462.649414062 -41.583984375 c 1
 461.405273438 -38.677734375 460.705078125 -35.4619140625 460.705078125 -32.1044921875 c 0
 460.705078125 -18.8251953125 471.485351562 -8.04296875 484.764648438 -8.04296875 c 2
 484.764648438 -8.04296875 604.265625 -8.0615234375 604.276367188 -8.04296875 c 0
 617.557617188 -8.04296875 628.326171875 -18.841796875 628.326171875 -32.12109375 c 0
 628.326171875 -35.48046875 627.637695312 -38.677734375 626.391601562 -41.583984375 c 2
 626.391601562 -41.583984375 566.66015625 -181.01171875 566.63671875 -181.01171875 c 0
 562.958984375 -189.59375 554.454101562 -195.61328125 544.532226562 -195.61328125 c 0
 534.610351562 -195.61328125 526.083984375 -189.59375 522.40625 -181.01171875 c 2
EndSplineSet
EndChar

StartChar: oslash
Encoding: 248 248 47
Width: 1016
Flags: HW
LayerCount: 2
Fore
SplineSet
328 794 m 0
 327.940041801 794.006128614 781.481445312 794 781.481445312 794 c 2
 826 794 861.6875 758.0625 861.6875 713.796875 c 0
 861.6875 697.67578125 856.872070312 682.577148438 848.672851562 669.998046875 c 1
 848.72265625 670.08203125 687.505859375 422.751953125 687.505859375 422.751953125 c 2
 683.212890625 416.162109375 675.778320312 411.8046875 667.3359375 411.8046875 c 0
 659.794921875 411.8046875 653.084960938 415.287109375 648.672851562 420.721679688 c 0
 648.6484375 420.713867188 606.18359375 473.040039062 606.18359375 473.040039062 c 2
 602.822265625 477.177734375 600.80859375 482.450195312 600.80859375 488.19140625 c 0
 600.80859375 493.02734375 602.244140625 497.57421875 604.704101562 501.34765625 c 1
 604.698242188 501.306640625 698.025390625 644.513671875 698.025390625 644.513671875 c 2
 700.485351562 648.287109375 701.915039062 652.791992188 701.915039062 657.627929688 c 0
 701.915039062 670.907226562 691.1484375 681.713867188 677.869140625 681.713867188 c 0
 677.841502009 681.713867188 445.919772519 681.711925551 445.919921875 681.712890625 c 0
 465 805 417 784.90288422 328 794 c 0
522.40625 -181.01171875 m 2
 522.40625 -181.01171875 462.639648438 -41.5654296875 462.649414062 -41.583984375 c 1
 461.405273438 -38.677734375 460.705078125 -35.4619140625 460.705078125 -32.1044921875 c 0
 460.705078125 -18.8251953125 471.485351562 -8.04296875 484.764648438 -8.04296875 c 2
 484.764648438 -8.04296875 604.265625 -8.0615234375 604.276367188 -8.04296875 c 0
 617.557617188 -8.04296875 628.326171875 -18.841796875 628.326171875 -32.12109375 c 0
 628.326171875 -35.48046875 627.637695312 -38.677734375 626.391601562 -41.583984375 c 2
 626.391601562 -41.583984375 566.66015625 -181.01171875 566.63671875 -181.01171875 c 0
 562.958984375 -189.59375 554.454101562 -195.61328125 544.532226562 -195.61328125 c 0
 534.610351562 -195.61328125 526.083984375 -189.59375 522.40625 -181.01171875 c 2
EndSplineSet
EndChar

StartChar: ugrave
Encoding: 249 249 48
Width: 1016
Flags: HW
LayerCount: 2
Fore
SplineSet
504 681.713867188 m 1
 572.67578125 681.708007812 677.850440056 681.713867188 677.869140625 681.713867188 c 0
 691.1484375 681.713867188 701.915039062 670.907226562 701.915039062 657.627929688 c 0
 701.915039062 652.791992188 700.485351562 648.287109375 698.025390625 644.513671875 c 2
 698.025390625 644.513671875 604.698242188 501.306640625 604.704101562 501.34765625 c 1
 602.244140625 497.57421875 600.80859375 493.02734375 600.80859375 488.19140625 c 0
 600.80859375 482.450195312 602.822265625 477.177734375 606.18359375 473.040039062 c 2
 606.18359375 473.040039062 648.6484375 420.713867188 648.672851562 420.721679688 c 0
 653.084960938 415.287109375 659.794921875 411.8046875 667.3359375 411.8046875 c 0
 675.778320312 411.8046875 683.212890625 416.162109375 687.505859375 422.751953125 c 2
 687.505859375 422.751953125 848.72265625 670.08203125 848.672851562 669.998046875 c 1
 856.872070312 682.577148438 861.6875 697.67578125 861.6875 713.796875 c 0
 861.6875 758.0625 825.99761663 793.997723053 781.481445312 794 c 2
 781.481445312 794 608.31640625 793.995117188 476 794.015625 c 1
 582 756 514 716 504 681.713867188 c 1
522.40625 -181.01171875 m 2
 522.40625 -181.01171875 462.639648438 -41.5654296875 462.649414062 -41.583984375 c 1
 461.405273438 -38.677734375 460.705078125 -35.4619140625 460.705078125 -32.1044921875 c 0
 460.705078125 -18.8251953125 471.485351562 -8.04296875 484.764648438 -8.04296875 c 2
 484.764648438 -8.04296875 604.265625 -8.0615234375 604.276367188 -8.04296875 c 0
 617.557617188 -8.04296875 628.326171875 -18.841796875 628.326171875 -32.12109375 c 0
 628.326171875 -35.48046875 627.637695312 -38.677734375 626.391601562 -41.583984375 c 2
 626.391601562 -41.583984375 566.66015625 -181.01171875 566.63671875 -181.01171875 c 0
 562.958984375 -189.59375 554.454101562 -195.61328125 544.532226562 -195.61328125 c 0
 534.610351562 -195.61328125 526.083984375 -189.59375 522.40625 -181.01171875 c 2
EndSplineSet
EndChar

StartChar: uacute
Encoding: 250 250 49
Width: 1016
Flags: HW
LayerCount: 2
Fore
SplineSet
626 681.712890625 m 1
 656.663085938 681.713867188 677.860590147 681.713867188 677.869140625 681.713867188 c 0
 691.1484375 681.713867188 701.915039062 670.907226562 701.915039062 657.627929688 c 0
 701.915039062 652.791992188 700.485351562 648.287109375 698.025390625 644.513671875 c 2
 698.025390625 644.513671875 604.698242188 501.306640625 604.704101562 501.34765625 c 1
 602.244140625 497.57421875 600.80859375 493.02734375 600.80859375 488.19140625 c 0
 600.80859375 482.450195312 602.822265625 477.177734375 606.18359375 473.040039062 c 2
 606.18359375 473.040039062 648.6484375 420.713867188 648.672851562 420.721679688 c 0
 653.084960938 415.287109375 659.794921875 411.8046875 667.3359375 411.8046875 c 0
 675.778320312 411.8046875 683.212890625 416.162109375 687.505859375 422.751953125 c 2
 687.505859375 422.751953125 848.72265625 670.08203125 848.672851562 669.998046875 c 1
 856.872070312 682.577148438 861.6875 697.67578125 861.6875 713.796875 c 0
 861.6875 758.0625 825.999997251 793.989820608 781.481445312 794 c 2
 781.481445312 794 714.946289062 794.041015625 632 794.034179688 c 1
 697 752 645 720 626 681.712890625 c 1
522.40625 -181.01171875 m 2
 522.40625 -181.01171875 462.639648438 -41.5654296875 462.649414062 -41.583984375 c 1
 461.405273438 -38.677734375 460.705078125 -35.4619140625 460.705078125 -32.1044921875 c 0
 460.705078125 -18.8251953125 471.485351562 -8.04296875 484.764648438 -8.04296875 c 2
 484.764648438 -8.04296875 604.265625 -8.0615234375 604.276367188 -8.04296875 c 0
 617.557617188 -8.04296875 628.326171875 -18.841796875 628.326171875 -32.12109375 c 0
 628.326171875 -35.48046875 627.637695312 -38.677734375 626.391601562 -41.583984375 c 2
 626.391601562 -41.583984375 566.66015625 -181.01171875 566.63671875 -181.01171875 c 0
 562.958984375 -189.59375 554.454101562 -195.61328125 544.532226562 -195.61328125 c 0
 534.610351562 -195.61328125 526.083984375 -189.59375 522.40625 -181.01171875 c 2
EndSplineSet
EndChar

StartChar: ucircumflex
Encoding: 251 251 50
Width: 1016
Flags: HW
LayerCount: 2
Fore
SplineSet
819 784.689453125 m 1
 844.383283305 771.217922923 861.6875 744.512322063 861.6875 713.796875 c 0
 861.6875 697.67578125 856.872070312 682.577148438 848.672851562 669.998046875 c 1
 848.72265625 670.08203125 687.505859375 422.751953125 687.505859375 422.751953125 c 2
 683.212890625 416.162109375 675.778320312 411.8046875 667.3359375 411.8046875 c 0
 659.794921875 411.8046875 653.084960938 415.287109375 648.672851562 420.721679688 c 0
 648.6484375 420.713867188 606.18359375 473.040039062 606.18359375 473.040039062 c 2
 602.822265625 477.177734375 600.80859375 482.450195312 600.80859375 488.19140625 c 0
 600.80859375 493.02734375 602.244140625 497.57421875 604.704101562 501.34765625 c 1
 604.698242188 501.306640625 698.025390625 644.513671875 698.025390625 644.513671875 c 2
 700.485351562 648.287109375 701.915039062 652.791992188 701.915039062 657.627929688 c 0
 701.915039062 669.864679563 693.150001936 676.770413169 690 678.423828125 c 1
 730 715 820 664 819 784.689453125 c 1
522.40625 -181.01171875 m 2
 522.40625 -181.01171875 462.639648438 -41.5654296875 462.649414062 -41.583984375 c 1
 461.405273438 -38.677734375 460.705078125 -35.4619140625 460.705078125 -32.1044921875 c 0
 460.705078125 -18.8251953125 471.485351562 -8.04296875 484.764648438 -8.04296875 c 2
 484.764648438 -8.04296875 604.265625 -8.0615234375 604.276367188 -8.04296875 c 0
 617.557617188 -8.04296875 628.326171875 -18.841796875 628.326171875 -32.12109375 c 0
 628.326171875 -35.48046875 627.637695312 -38.677734375 626.391601562 -41.583984375 c 2
 626.391601562 -41.583984375 566.66015625 -181.01171875 566.63671875 -181.01171875 c 0
 562.958984375 -189.59375 554.454101562 -195.61328125 544.532226562 -195.61328125 c 0
 534.610351562 -195.61328125 526.083984375 -189.59375 522.40625 -181.01171875 c 2
EndSplineSet
EndChar

StartChar: udieresis
Encoding: 252 252 51
Width: 1016
Flags: HW
LayerCount: 2
Fore
SplineSet
825.857421875 635 m 1
 781.404576537 566.806279359 687.505859375 422.751953125 687.505859375 422.751953125 c 2
 683.07346002 415.952115891 675.778320312 411.8046875 667.3359375 411.8046875 c 0
 659.794921875 411.8046875 653.084960938 415.287109375 648.672851562 420.721679688 c 0
 648.6484375 420.713867188 606.18359375 473.040039062 606.18359375 473.040039062 c 2
 602.822265625 477.177734375 600.80859375 482.450195312 600.80859375 488.19140625 c 0
 600.80859375 493.02734375 602.244140625 497.57421875 604.704101562 501.34765625 c 1
 604.698242188 501.306640625 698.025390625 644.513671875 698.025390625 644.513671875 c 2
 700.485151783 648.287239599 701.915039062 652.791992188 701.915039062 657.627929688 c 1
 747 675 770 562 825.857421875 635 c 1
522.40625 -181.01171875 m 2
 522.40625 -181.01171875 462.639648438 -41.5654296875 462.649414062 -41.583984375 c 1
 461.405273438 -38.677734375 460.705078125 -35.4619140625 460.705078125 -32.1044921875 c 0
 460.705078125 -18.8251953125 471.485351562 -8.04296875 484.764648438 -8.04296875 c 2
 484.764648438 -8.04296875 604.265625 -8.0615234375 604.276367188 -8.04296875 c 0
 617.557617188 -8.04296875 628.326171875 -18.841796875 628.326171875 -32.12109375 c 0
 628.326171875 -35.48046875 627.637695312 -38.677734375 626.391601562 -41.583984375 c 2
 626.391601562 -41.583984375 566.66015625 -181.01171875 566.63671875 -181.01171875 c 0
 562.958984375 -189.59375 554.454101562 -195.61328125 544.532226562 -195.61328125 c 0
 534.610351562 -195.61328125 526.083984375 -189.59375 522.40625 -181.01171875 c 2
EndSplineSet
EndChar

StartChar: yacute
Encoding: 253 253 52
Width: 1016
Flags: HW
LayerCount: 2
Fore
SplineSet
672.92578125 606 m 1
 645.283082022 563.58627916 604.700237665 501.320608969 604.704101562 501.34765625 c 1
 602.244140625 497.57421875 600.80859375 493.02734375 600.80859375 488.19140625 c 0
 600.80859375 482.450195312 602.822265625 477.177734375 606.18359375 473.040039062 c 2
 606.18359375 473.040039062 648.6484375 420.713867188 648.672851562 420.721679688 c 0
 653.084960938 415.287109375 659.794921875 411.8046875 667.3359375 411.8046875 c 0
 675.778320312 411.8046875 683.083765623 415.954261041 687.505859375 422.751953125 c 2
 687.505859375 422.751953125 692.58984375 430.676757812 728 485 c 1
 657.193359375 452 719 607 672.92578125 606 c 1
522.40625 -181.01171875 m 2
 522.40625 -181.01171875 462.639648438 -41.5654296875 462.649414062 -41.583984375 c 1
 461.405273438 -38.677734375 460.705078125 -35.4619140625 460.705078125 -32.1044921875 c 0
 460.705078125 -18.8251953125 471.485351562 -8.04296875 484.764648438 -8.04296875 c 2
 484.764648438 -8.04296875 604.265625 -8.0615234375 604.276367188 -8.04296875 c 0
 617.557617188 -8.04296875 628.326171875 -18.841796875 628.326171875 -32.12109375 c 0
 628.326171875 -35.48046875 627.637695312 -38.677734375 626.391601562 -41.583984375 c 2
 626.391601562 -41.583984375 566.66015625 -181.01171875 566.63671875 -181.01171875 c 0
 562.958984375 -189.59375 554.454101562 -195.61328125 544.532226562 -195.61328125 c 0
 534.610351562 -195.61328125 526.083984375 -189.59375 522.40625 -181.01171875 c 2
EndSplineSet
EndChar

StartChar: thorn
Encoding: 254 254 53
Width: 1016
Flags: HW
LayerCount: 2
Fore
SplineSet
522.40625 -181.01171875 m 2
 522.40625 -181.01171875 462.639648438 -41.5654296875 462.649414062 -41.583984375 c 1
 461.405273438 -38.677734375 460.705078125 -35.4619140625 460.705078125 -32.1044921875 c 0
 460.705078125 -18.8251953125 471.485351562 -8.04296875 484.764648438 -8.04296875 c 2
 484.764648438 -8.04296875 604.265625 -8.0615234375 604.276367188 -8.04296875 c 0
 617.557617188 -8.04296875 628.326171875 -18.841796875 628.326171875 -32.12109375 c 0
 628.326171875 -35.48046875 627.637695312 -38.677734375 626.391601562 -41.583984375 c 2
 626.391601562 -41.583984375 566.66015625 -181.01171875 566.63671875 -181.01171875 c 0
 562.958984375 -189.59375 554.454101562 -195.61328125 544.532226562 -195.61328125 c 0
 534.610351562 -195.61328125 526.083984375 -189.59375 522.40625 -181.01171875 c 2
EndSplineSet
EndChar

StartChar: ydieresis
Encoding: 255 255 54
Width: 1016
Flags: HWO
LayerCount: 2
Fore
SplineSet
609.075195312 -82 m 1
 591.43563224 -123.17279574 566.642664768 -180.997843655 566.63671875 -181.01171875 c 0
 562.958984375 -189.59375 554.454101562 -195.61328125 544.532226562 -195.61328125 c 0
 534.610351562 -195.61328125 526.218490223 -189.906355113 522.40625 -181.01171875 c 2
 522.40625 -181.01171875 498.015008538 -124.102541741 480.3984375 -83 c 1
 519.776685997 -135.213513938 557.230802993 -42.0432408209 609.075195312 -82 c 1
EndSplineSet
EndChar
